<svg version="1.1" id="Layer_1" xmlns="http://www.w3.org/2000/svg" xmlns:xlink="http://www.w3.org/1999/xlink" x="0px" y="0px"
	 width="100%" viewBox="0 0 1902 1875" enable-background="new 0 0 1902 1875" xml:space="preserve">
<path fill="#000000" opacity="1.000000" stroke="none" 
	d="
M1903.000000,494.000000 
	C1903.000000,953.500000 1902.994629,1412.500000 1903.092896,1871.500000 
	C1903.093628,1875.249023 1902.249023,1876.093384 1898.500000,1876.092773 
	C1267.500000,1875.996094 636.500000,1875.995972 5.500015,1876.092651 
	C1.750997,1876.093262 0.906676,1875.249023 0.907257,1871.500000 
	C1.003929,1248.000000 1.000000,624.500000 1.000000,1.000000 
	C633.500000,1.000000 1266.000000,1.003886 1898.500000,0.907261 
	C1902.249023,0.906688 1903.096313,1.750659 1903.093872,5.500062 
	C1902.984985,168.166656 1903.000000,330.833344 1903.000000,494.000000 
z"/>
<path fill="#F68D2E" opacity="1.000000" stroke="none" 
	d="
M220.726440,418.661072 
	C230.534409,404.408112 240.876282,391.022400 251.585800,377.914398 
	C264.458984,362.158173 277.714844,346.758453 291.503754,331.769989 
	C306.825989,315.114777 322.827179,299.132202 339.186279,283.579773 
	C357.906006,265.783203 377.731110,249.160263 398.107056,233.191147 
	C420.042908,215.999466 442.703552,199.847748 466.004669,184.644882 
	C483.091431,173.496628 500.764130,163.219513 518.780701,153.557632 
	C532.114990,146.406754 545.309998,138.981705 559.008057,132.557327 
	C583.248718,121.188515 607.764343,110.463036 632.802612,100.912376 
	C670.882751,86.387009 709.830017,74.719299 749.454163,65.389473 
	C767.474976,61.146332 785.715332,57.767670 804.043884,54.883057 
	C821.656372,52.111130 839.288513,49.691628 857.030090,47.950783 
	C869.968140,46.681282 882.924011,45.783005 895.884949,44.827316 
	C921.738403,42.920967 947.598938,42.800850 973.469055,43.091862 
	C987.999023,43.255314 1002.537964,44.065056 1017.037292,45.088726 
	C1030.611694,46.047089 1044.193848,47.270561 1057.672241,49.111130 
	C1072.363281,51.117271 1087.037964,53.291920 1101.681274,55.713322 
	C1128.656738,60.173935 1155.263550,66.151939 1181.705200,72.991020 
	C1197.718018,77.132706 1213.509033,82.030304 1229.242310,87.099327 
	C1256.856689,95.996284 1283.852051,106.554054 1310.443604,118.127914 
	C1327.560059,125.577698 1344.568726,133.302307 1361.061523,142.055786 
	C1384.748413,154.627563 1408.073730,167.819717 1430.790649,182.125397 
	C1453.220947,196.250641 1474.801147,211.569794 1495.868896,227.568939 
	C1510.346436,238.563370 1524.155029,250.465088 1538.014893,262.280579 
	C1561.274170,282.109039 1582.690552,303.806854 1603.913086,325.681091 
	C1616.140625,338.283905 1627.571411,351.692139 1638.899780,365.173401 
	C1659.580078,389.783691 1678.814087,415.430634 1696.616699,442.159637 
	C1709.409668,461.366760 1721.370361,481.085052 1732.761963,501.174896 
	C1743.495239,520.104065 1753.140625,539.574280 1762.466553,559.183228 
	C1773.118896,581.581360 1782.606934,604.504272 1791.157227,627.827515 
	C1796.564819,642.577942 1802.047119,657.321289 1806.602661,672.322937 
	C1813.992554,696.658691 1820.711426,721.212341 1826.001953,746.119812 
	C1829.819702,764.093750 1833.451294,782.098694 1836.037476,800.304993 
	C1838.334351,816.473206 1840.837280,832.596313 1842.115234,848.908386 
	C1843.156372,862.199036 1844.306030,875.475098 1845.244507,888.776062 
	C1845.935669,898.571411 1845.000610,908.393311 1846.159912,918.060791 
	C1847.533936,929.518494 1847.023804,940.942932 1846.881592,952.357727 
	C1846.679810,968.553772 1845.949707,984.758362 1844.906250,1000.924438 
	C1843.987671,1015.156311 1842.741211,1029.394653 1840.884399,1043.530884 
	C1838.889893,1058.716553 1836.727417,1073.885864 1834.240234,1089.018555 
	C1829.995117,1114.844604 1824.515991,1140.360718 1818.009766,1165.684570 
	C1813.287598,1184.064331 1807.815430,1202.225952 1801.900879,1220.248779 
	C1793.171021,1246.850342 1783.035645,1272.916870 1771.847656,1298.586670 
	C1763.401855,1317.964966 1754.409180,1337.086182 1744.555664,1355.770508 
	C1731.302490,1380.901611 1716.811523,1405.321045 1701.391846,1429.206787 
	C1688.603027,1449.017456 1674.655029,1467.990234 1660.516479,1486.810425 
	C1651.399048,1498.946777 1641.264160,1510.322876 1631.499634,1521.967896 
	C1621.962036,1533.342285 1611.722534,1544.085083 1601.724243,1555.047119 
	C1591.853027,1565.869751 1581.599121,1576.300659 1570.980957,1586.308838 
	C1555.063843,1601.311890 1538.784302,1615.933350 1521.852783,1629.847778 
	C1499.682129,1648.067993 1476.951782,1665.453857 1453.155151,1681.506470 
	C1435.505493,1693.412476 1417.550537,1704.776855 1399.130737,1715.442871 
	C1380.111694,1726.455811 1360.827881,1736.985840 1340.988647,1746.416138 
	C1315.961548,1758.312500 1290.499390,1769.226196 1264.561157,1779.036255 
	C1228.302979,1792.749268 1191.192749,1803.658936 1153.538574,1812.655396 
	C1135.862183,1816.878540 1117.958984,1820.202271 1099.989746,1823.166992 
	C1087.613892,1825.208984 1075.169312,1826.760254 1062.800171,1828.839722 
	C1055.049683,1830.142700 1047.069946,1830.019165 1039.263428,1831.062500 
	C1022.937378,1833.244873 1006.466187,1833.375977 990.088867,1834.846680 
	C981.160583,1835.648315 972.101807,1834.998291 963.101868,1834.999268 
	C947.601990,1835.000854 932.089417,1835.390991 916.605652,1834.892090 
	C900.298279,1834.366699 883.992432,1833.292358 867.734253,1831.895020 
	C853.390625,1830.662354 839.068481,1828.966675 824.819580,1826.903809 
	C809.686829,1824.713135 794.628479,1822.024292 779.587524,1819.189087 
	C760.573975,1815.604980 741.729980,1811.372681 723.038208,1806.484863 
	C694.175293,1798.937622 665.740051,1789.992798 637.822205,1779.419678 
	C618.106201,1771.952881 598.581787,1764.069336 579.433777,1755.217407 
	C566.580200,1749.275269 553.620605,1743.559448 541.078125,1736.981201 
	C518.369019,1725.070801 496.033569,1712.511597 474.294464,1698.877075 
	C449.890625,1683.571411 426.350433,1667.035767 403.401886,1649.666016 
	C393.349823,1642.057617 383.860443,1633.703125 374.155579,1625.639282 
	C360.594757,1614.371704 347.645508,1602.433594 334.681702,1590.481567 
	C323.681610,1580.339722 313.116760,1569.783081 302.735687,1559.072876 
	C290.463470,1546.411255 278.769836,1533.156250 267.328766,1519.729614 
	C250.608597,1500.107666 234.926147,1479.665527 219.841858,1458.733765 
	C205.764053,1439.198486 192.764664,1418.981323 180.313538,1398.424561 
	C172.910675,1386.202271 165.776596,1373.769897 159.407257,1360.931030 
	C153.762054,1349.551758 147.483826,1338.478271 142.074432,1326.992188 
	C131.165558,1303.828857 121.000702,1280.339600 111.930534,1256.373413 
	C104.074623,1235.615723 97.053986,1214.589966 90.726784,1193.333130 
	C84.158928,1171.268066 78.622482,1148.951782 73.785500,1126.420288 
	C70.097519,1109.241211 67.040047,1091.962769 64.220123,1074.659058 
	C62.330608,1063.064575 61.026115,1051.325317 59.850689,1039.589844 
	C58.178967,1022.899475 56.843025,1006.211243 55.755901,989.474060 
	C55.228340,981.351685 55.722313,973.228333 54.921379,965.175354 
	C53.685383,952.747986 53.810165,940.307190 54.077217,927.880249 
	C54.439495,911.021851 55.043091,894.156555 56.095181,877.328735 
	C56.995628,862.926453 58.197723,848.508484 60.130169,834.214233 
	C62.443321,817.103943 64.820984,799.998840 67.770676,782.960388 
	C72.373131,756.375122 78.139626,730.058350 85.180069,704.068054 
	C92.797867,675.946411 101.887047,648.256470 112.382019,621.022827 
	C123.547325,592.049744 136.104126,563.743347 149.927979,535.947449 
	C162.154434,511.363464 175.750015,487.596588 190.147858,464.238983 
	C199.013321,449.856537 208.598312,435.969971 217.975967,421.937012 
	C218.695145,420.860779 219.665543,419.952484 220.726440,418.661072 
z"/>
<path fill="#000000" opacity="1.000000" stroke="none" 
	d="
M242.717316,406.794495 
	C249.938004,397.862854 256.842804,389.139923 263.881012,380.525940 
	C270.309937,372.657715 276.706024,364.750702 283.435516,357.142883 
	C292.970093,346.363770 303.074097,336.087952 312.794434,325.493134 
	C328.911560,307.925995 346.669220,292.193085 364.200928,276.152710 
	C375.593781,265.728973 387.398041,255.809326 399.441437,246.191666 
	C414.321045,234.309036 429.646027,223.007904 445.272308,212.087463 
	C465.789215,197.749176 486.921112,184.422501 508.554260,171.887146 
	C531.084778,158.831818 554.179016,146.831314 577.876038,136.003616 
	C597.621521,126.981514 617.564880,118.482071 637.922119,110.889214 
	C652.033752,105.625847 666.166382,100.474747 680.488220,95.822746 
	C708.266113,86.799934 736.451294,79.244179 764.997986,73.155777 
	C783.107605,69.293396 801.329041,65.730721 819.662170,63.210701 
	C835.218140,61.072407 850.801331,58.911453 866.527527,57.835602 
	C881.815735,56.789719 897.097778,55.749054 912.392944,54.794075 
	C936.011658,53.319405 959.607300,54.105675 983.198059,54.212894 
	C994.862915,54.265911 1006.636902,55.006546 1018.263855,56.171951 
	C1035.351440,57.884693 1052.446167,59.617393 1069.504639,61.771656 
	C1107.515381,66.571915 1144.895264,74.369659 1181.826294,84.200096 
	C1211.739136,92.162354 1241.089355,102.037178 1269.957642,113.357231 
	C1301.151001,125.589066 1331.646118,139.291885 1361.335327,154.782257 
	C1382.363770,165.753769 1402.802490,177.750519 1422.935791,190.314011 
	C1444.897583,204.018524 1466.062988,218.857559 1486.655029,234.469940 
	C1498.493896,243.445831 1510.038086,252.866104 1521.305298,262.623199 
	C1535.507446,274.921844 1549.181885,287.774048 1563.142090,300.314819 
	C1577.000366,312.764160 1589.535889,326.433838 1602.145020,339.980804 
	C1621.087036,360.331696 1638.793823,381.792572 1655.699341,403.942688 
	C1675.975586,430.508972 1694.659302,458.110931 1711.818604,486.721039 
	C1725.203369,509.037506 1737.717163,531.909607 1748.707886,555.512451 
	C1760.123169,580.027161 1770.690308,604.901123 1780.239014,630.257202 
	C1791.286377,659.593201 1800.762817,689.389282 1808.622192,719.651367 
	C1815.025635,744.307617 1820.406616,769.259705 1824.112183,794.536926 
	C1826.290649,809.397583 1828.522217,824.227905 1830.133301,839.174377 
	C1831.823486,854.853271 1833.023438,870.541260 1834.171021,886.263611 
	C1835.997681,911.288635 1836.435669,936.323608 1835.820435,961.351318 
	C1835.471924,975.527588 1834.900635,989.740906 1833.910400,1003.900940 
	C1832.960938,1017.476868 1831.725586,1031.059082 1829.890015,1044.539551 
	C1827.869019,1059.380005 1825.653198,1074.200562 1823.213257,1088.992676 
	C1819.217285,1113.218506 1813.999878,1137.148071 1807.952759,1160.909668 
	C1804.158691,1175.818481 1799.612549,1190.519897 1795.136719,1205.245239 
	C1788.114868,1228.346924 1779.768555,1250.972168 1770.740479,1273.307983 
	C1759.106689,1302.090698 1745.709961,1330.120239 1731.060181,1357.502563 
	C1716.576294,1384.574707 1700.751221,1410.863159 1683.370239,1436.192993 
	C1669.340942,1456.638306 1654.723755,1476.620728 1638.889038,1495.744629 
	C1625.801025,1511.551636 1612.422485,1527.048828 1598.534180,1542.166626 
	C1585.252686,1556.623901 1571.485718,1570.600098 1557.207275,1583.985229 
	C1539.428955,1600.651123 1521.013306,1616.643555 1501.881104,1631.838379 
	C1482.997803,1646.835571 1463.713501,1661.229492 1443.729370,1674.665039 
	C1422.872314,1688.687256 1401.420654,1701.774414 1379.419922,1713.969604 
	C1364.315552,1722.342163 1349.028320,1730.364868 1333.444946,1737.754639 
	C1306.626831,1750.472168 1279.279663,1761.950439 1251.356689,1772.113892 
	C1217.646240,1784.384033 1183.312988,1794.505371 1148.426758,1802.644775 
	C1130.389526,1806.853027 1112.127319,1810.187256 1093.804077,1813.171143 
	C1077.679932,1815.796875 1061.470215,1817.661133 1045.303955,1819.873047 
	C1035.864136,1821.164551 1026.244263,1821.079102 1016.751282,1822.057983 
	C1001.750671,1823.604614 986.680420,1823.390747 971.680542,1824.285767 
	C959.883484,1824.989868 948.090759,1825.350098 936.381531,1824.790894 
	C921.018921,1824.057373 905.620789,1824.170288 890.289307,1822.954224 
	C875.890991,1821.812378 861.451111,1820.829590 847.153870,1818.869507 
	C828.433044,1816.303101 809.715942,1813.717529 791.095886,1810.286743 
	C769.017334,1806.218628 747.078979,1801.609497 725.417786,1795.859863 
	C697.388306,1788.419800 669.846008,1779.421631 642.593201,1769.374268 
	C606.704895,1756.143311 571.919495,1740.567749 538.074158,1722.897217 
	C517.927185,1712.378418 498.333771,1700.838623 479.062195,1688.712280 
	C457.575806,1675.192383 436.665436,1660.870605 416.436310,1645.604614 
	C402.867157,1635.364502 389.802582,1624.426880 376.779114,1613.452637 
	C353.055878,1593.462280 330.798676,1571.953979 309.321167,1549.649414 
	C294.269226,1534.017700 279.991211,1517.662720 266.181305,1500.869751 
	C252.169693,1483.831665 238.740814,1466.383911 226.010132,1448.407593 
	C208.244308,1423.321289 192.054611,1397.227051 176.996780,1370.409790 
	C166.695786,1352.063843 157.187256,1333.303955 148.256989,1314.302979 
	C135.796356,1287.790527 124.791229,1260.622803 115.009628,1232.973633 
	C104.085663,1202.095337 94.958542,1170.686401 87.527496,1138.817261 
	C83.769302,1122.699707 80.319000,1106.475342 77.949287,1090.051514 
	C76.205956,1077.968750 73.749092,1065.985596 72.140388,1053.887573 
	C70.713722,1043.158325 70.091446,1032.324585 68.982346,1021.550415 
	C67.190399,1004.142883 66.757240,986.660828 65.730637,969.214050 
	C64.663788,951.083374 64.865379,932.985718 65.248108,914.916016 
	C65.530502,901.583374 65.707695,888.148132 67.138062,874.876648 
	C69.012993,857.480103 70.558304,840.049927 72.728638,822.669373 
	C75.984283,796.597229 80.752815,770.832397 86.225555,745.210571 
	C90.109993,727.024719 94.996964,709.025391 100.368523,691.173096 
	C106.021133,672.386719 112.129730,653.778198 118.848114,635.345276 
	C126.116730,615.402649 134.195511,595.817627 142.813446,576.425598 
	C149.495758,561.389099 156.374146,546.444031 164.092987,531.932312 
	C176.900436,507.853760 190.382797,484.168091 205.149811,461.189240 
	C217.014923,442.726044 230.008057,425.084839 242.717316,406.794495 
z"/>
<path fill="#F6BE00" opacity="1.000000" stroke="none" 
	d="
M1694.995117,1384.041016 
	C1680.442993,1408.507935 1664.815430,1431.833862 1648.133301,1454.480469 
	C1638.165771,1468.011719 1627.767090,1481.195435 1617.137939,1494.187500 
	C1609.339111,1503.720093 1600.949585,1512.782715 1592.593384,1521.842773 
	C1581.935669,1533.397827 1571.501953,1545.216064 1560.148682,1556.059082 
	C1543.711914,1571.756470 1527.095947,1587.268921 1509.729126,1602.000244 
	C1481.111694,1626.274902 1451.036377,1648.503418 1419.561646,1668.856934 
	C1402.270386,1680.038574 1384.542847,1690.503662 1366.419312,1700.329346 
	C1350.249756,1709.095337 1333.786743,1717.257324 1317.234985,1725.225586 
	C1295.683105,1735.600952 1273.548950,1744.694946 1251.077148,1752.883179 
	C1235.436890,1758.582153 1219.690796,1764.063843 1203.760254,1768.875000 
	C1180.232910,1775.980225 1156.482666,1782.252563 1132.363892,1787.209106 
	C1119.657959,1789.820190 1106.903564,1792.240723 1094.191406,1794.819458 
	C1083.817383,1796.924072 1073.120850,1797.381592 1062.647705,1799.068359 
	C1048.430786,1801.358032 1034.051880,1802.055664 1019.792480,1803.904297 
	C1014.422058,1804.600586 1008.936218,1804.485107 1003.508545,1804.819092 
	C974.950073,1806.577026 946.328430,1806.306519 917.740417,1805.821411 
	C906.067078,1805.623413 894.313538,1804.956299 882.684875,1803.829102 
	C865.937134,1802.205811 849.187195,1800.519897 832.487549,1798.207520 
	C805.077454,1794.412109 777.970032,1789.383789 751.000183,1783.200317 
	C727.611877,1777.838135 704.631714,1771.184570 681.821533,1763.890991 
	C653.416504,1754.808472 625.704407,1743.880249 598.405579,1731.865479 
	C578.899597,1723.280518 559.829285,1713.791260 540.990234,1703.896362 
	C512.382812,1688.870728 484.887756,1671.882812 458.252106,1653.605225 
	C442.460663,1642.768799 426.926422,1631.456543 412.091949,1619.358398 
	C400.030396,1609.521851 387.882233,1599.736450 376.405396,1589.140015 
	C366.200592,1579.718018 356.316925,1569.936646 345.961426,1560.717773 
	C330.592194,1547.035278 317.153687,1531.545654 303.311554,1516.490112 
	C287.762299,1499.577759 273.322693,1481.645020 259.477020,1463.224854 
	C240.223022,1437.609619 222.305420,1411.179932 205.825989,1383.696655 
	C193.032516,1362.360596 180.887665,1340.675903 170.201630,1318.256958 
	C158.308273,1293.304932 147.465256,1267.879395 137.789261,1241.924072 
	C126.303673,1211.114624 116.525711,1179.820923 108.518684,1147.980591 
	C104.015060,1130.071655 100.048462,1112.001831 97.026909,1093.761230 
	C94.579636,1078.987427 91.899910,1064.230835 90.161118,1049.368530 
	C88.866234,1038.300537 87.843185,1027.173462 86.853996,1016.056885 
	C84.784668,992.801331 83.703484,969.546021 83.966324,946.205383 
	C84.142860,930.529175 83.610695,914.836792 84.115288,899.174866 
	C84.581421,884.706726 85.664169,870.235352 87.099686,855.827637 
	C88.703651,839.729248 90.525017,823.622192 93.113792,807.658752 
	C98.360451,775.306030 104.990959,743.250671 113.585548,711.563904 
	C122.326546,679.337402 132.908356,647.758423 145.204529,616.786743 
	C156.769440,587.656921 170.051117,559.241882 184.861221,531.591797 
	C198.199158,506.690155 212.589371,482.427429 228.371140,458.956421 
	C241.908920,438.822662 256.071320,419.202026 271.172363,400.216766 
	C281.906616,386.721588 293.210663,373.747681 304.560638,360.777893 
	C320.432953,342.640350 337.311737,325.480408 354.784332,308.966736 
	C374.333069,290.490936 394.667419,272.860046 415.976105,256.349670 
	C434.870392,241.709976 454.064331,227.533173 474.060028,214.453613 
	C493.587738,201.680161 513.516052,189.575958 534.025330,178.411789 
	C550.037292,169.695709 566.369080,161.622177 582.792236,153.756287 
	C606.897400,142.211090 631.664246,132.172195 656.798096,123.081329 
	C685.723633,112.619034 715.145386,103.728210 745.046265,96.535324 
	C763.960205,91.985451 782.999817,88.016220 802.224365,84.821190 
	C816.846375,82.391083 831.535217,80.458496 846.167419,78.133980 
	C853.930115,76.900780 861.856628,76.714027 869.703552,75.993263 
	C888.447693,74.271568 907.242249,73.607094 926.034790,72.696320 
	C940.991577,71.971436 955.928223,71.870567 970.820190,72.307350 
	C978.057373,72.519608 985.370972,72.391937 992.606079,73.041313 
	C1008.140503,74.435593 1023.733582,74.910172 1039.252808,76.769135 
	C1049.161255,77.956001 1059.119019,78.999596 1069.053101,80.083817 
	C1078.600586,81.125824 1088.123657,82.579781 1097.568237,84.333199 
	C1114.755127,87.523964 1131.913574,90.846214 1148.937378,94.897797 
	C1163.127686,98.275047 1177.189453,102.070595 1191.239380,105.957008 
	C1216.675293,112.992889 1241.500000,121.880280 1266.171997,131.133835 
	C1280.682251,136.576096 1294.773438,143.164673 1308.930054,149.511993 
	C1320.471558,154.686844 1332.038940,159.873398 1343.221680,165.763229 
	C1360.003906,174.602234 1376.747192,183.513382 1393.027100,193.314743 
	C1407.900269,202.269211 1422.691284,211.336029 1437.025269,221.102936 
	C1456.819214,234.590088 1476.102661,248.780670 1494.624268,264.010345 
	C1506.313354,273.621918 1517.727051,283.526581 1529.124634,293.476440 
	C1547.163452,309.224060 1564.214111,325.994934 1580.613281,343.360962 
	C1597.719849,361.476196 1614.079590,380.290466 1629.612305,399.848572 
	C1643.885620,417.820770 1657.652954,436.164368 1670.428833,455.159454 
	C1683.704590,474.897949 1696.208862,495.186493 1707.693481,516.087402 
	C1717.100830,533.207825 1726.156616,550.505737 1734.473633,568.152771 
	C1747.860229,596.556091 1759.789429,625.575928 1770.065796,655.287415 
	C1780.073242,684.221130 1788.555298,713.578918 1795.538208,743.354065 
	C1799.320190,759.480957 1802.697021,775.723083 1805.057861,792.157104 
	C1806.791870,804.227478 1809.687256,816.167175 1810.792480,828.281311 
	C1811.836426,839.723450 1813.199707,851.142273 1814.183105,862.594910 
	C1816.195801,886.033386 1817.267944,909.462708 1817.029297,932.976685 
	C1816.873535,948.318665 1817.389404,963.676392 1816.885742,979.003418 
	C1816.415527,993.305481 1815.481812,1007.631348 1813.869995,1021.846741 
	C1811.920166,1039.041138 1809.853638,1056.226318 1807.203369,1073.354614 
	C1803.550537,1096.962402 1798.771484,1120.282349 1793.313843,1143.524658 
	C1786.199829,1173.821289 1777.152710,1203.500610 1766.637817,1232.755737 
	C1758.702271,1254.833740 1749.934570,1276.568970 1740.092041,1297.883667 
	C1734.159912,1310.730225 1728.557495,1323.749390 1721.834839,1336.189819 
	C1713.197876,1352.172607 1705.110229,1368.482422 1694.995117,1384.041016 
z"/>
<path fill="#000000" opacity="1.000000" stroke="none" 
	d="
M1799.000000,917.001221 
	C1799.000122,935.500061 1799.390503,953.510193 1798.884399,971.495178 
	C1798.425537,987.795471 1797.304321,1004.095642 1795.887085,1020.344604 
	C1794.694580,1034.015747 1793.010864,1047.668335 1790.904907,1061.229614 
	C1788.062012,1079.535278 1784.925659,1097.798462 1781.052979,1115.932861 
	C1776.959717,1135.100586 1772.260986,1154.117310 1766.895508,1172.950684 
	C1757.761719,1205.011353 1746.334961,1236.300171 1733.891602,1267.209961 
	C1730.264038,1276.220337 1726.085205,1285.013916 1722.006714,1293.836548 
	C1706.313354,1327.784546 1688.382080,1360.491821 1668.506958,1392.195312 
	C1653.558105,1416.041016 1637.205933,1438.868164 1620.116577,1461.154175 
	C1609.557617,1474.923828 1598.259277,1488.149780 1586.606689,1501.066040 
	C1576.959106,1511.759888 1566.790649,1521.952393 1557.127075,1532.593628 
	C1547.655151,1543.023926 1537.226318,1552.422974 1527.081299,1562.073486 
	C1513.923828,1574.589478 1499.975342,1586.298218 1485.877930,1597.826904 
	C1462.805908,1616.694824 1438.791748,1634.192749 1413.927002,1650.565674 
	C1395.368408,1662.786133 1376.223511,1674.022095 1356.751465,1684.733887 
	C1341.192505,1693.292969 1325.324707,1701.269897 1309.274414,1708.779907 
	C1284.365601,1720.435181 1258.860962,1730.752075 1232.936768,1740.026001 
	C1205.936401,1749.684937 1178.453125,1757.717407 1150.648315,1764.564453 
	C1131.906006,1769.179688 1113.000366,1773.233032 1093.860352,1776.039062 
	C1081.456543,1777.857544 1069.153442,1780.527588 1056.701538,1781.803955 
	C1045.114624,1782.991577 1033.487915,1784.047974 1021.892761,1785.165039 
	C989.479065,1788.287964 957.001648,1788.482910 924.536255,1787.813965 
	C906.145996,1787.435181 887.748474,1786.058472 869.386230,1784.229126 
	C856.014954,1782.896851 842.603088,1781.638062 829.334045,1779.748779 
	C812.954285,1777.416382 796.615540,1774.565063 780.388916,1771.113525 
	C762.022583,1767.207153 743.755676,1762.953979 725.654480,1757.991455 
	C709.303467,1753.508789 693.066223,1748.642090 677.050598,1743.053833 
	C655.843018,1735.653931 634.922058,1727.553101 614.241394,1718.759521 
	C592.269714,1709.417236 570.879333,1698.870117 549.788574,1687.792603 
	C530.105774,1677.454712 511.034637,1665.963135 492.275696,1653.942261 
	C472.026093,1640.966309 452.504578,1626.992920 433.317902,1612.562988 
	C421.145294,1603.408203 409.728699,1593.245605 398.010162,1583.490479 
	C383.778412,1571.642822 370.690979,1558.554077 357.129883,1545.976440 
	C346.564728,1536.177246 336.759399,1525.656006 327.018738,1515.160278 
	C308.082672,1494.756104 290.246521,1473.371826 273.384735,1451.138062 
	C251.773773,1422.642212 231.995163,1392.971924 214.149033,1362.052490 
	C201.322479,1339.829834 189.496429,1317.027466 178.901108,1293.608643 
	C163.350754,1259.237793 149.669891,1224.149414 138.640182,1188.083496 
	C130.309509,1160.843140 123.216072,1133.266602 117.880692,1105.239868 
	C114.441292,1087.172852 111.188805,1069.101196 108.948730,1050.840454 
	C107.371414,1037.982422 105.804337,1025.144653 104.846390,1012.208923 
	C104.104263,1002.187683 103.563644,992.161133 102.865723,982.145447 
	C101.036087,955.889099 101.826111,929.614136 102.282730,903.382935 
	C102.561913,887.345032 104.075150,871.243469 105.750511,855.199768 
	C107.076408,842.502625 108.386490,829.776733 110.212631,817.171021 
	C112.048859,804.495605 114.247406,791.833679 116.701195,779.222412 
	C120.017067,762.180664 123.733574,745.258301 128.012238,728.449219 
	C131.603180,714.341980 135.678009,700.373840 139.921082,686.442505 
	C147.461166,661.686157 156.350357,637.399414 166.342361,613.586182 
	C178.889206,583.684082 192.910172,554.444458 208.860962,526.131348 
	C221.927383,502.938202 235.812546,480.303192 250.915985,458.396240 
	C262.916718,440.989685 275.482941,424.017670 288.824524,407.605255 
	C302.088501,391.288361 315.972687,375.548737 330.205292,360.063599 
	C342.036255,347.191437 354.237366,334.684143 366.972809,322.793365 
	C386.616302,304.452698 406.916504,286.837341 428.099792,270.198853 
	C454.785645,249.238388 482.705780,230.123016 511.511108,212.328308 
	C537.095947,196.523087 563.903198,182.828430 591.122070,170.043457 
	C626.705811,153.329453 663.363892,139.299072 700.891541,127.579720 
	C728.572876,118.935249 756.700989,111.902107 785.108521,106.218605 
	C802.336060,102.771873 819.706604,99.829559 837.227600,97.889481 
	C849.757812,96.502029 862.256226,94.958931 874.826172,93.836235 
	C892.601807,92.248573 910.383179,91.545761 928.192749,90.737259 
	C939.971924,90.202530 951.765747,89.612839 963.479126,90.187813 
	C979.001099,90.949760 994.560486,90.784821 1010.049255,92.047859 
	C1023.941223,93.180695 1037.863159,94.236382 1051.665161,96.110626 
	C1070.049316,98.607117 1088.415894,101.231232 1106.677490,104.687988 
	C1123.589233,107.889259 1140.401123,111.446152 1157.083740,115.599449 
	C1185.508423,122.676102 1213.434937,131.414978 1240.957642,141.452179 
	C1261.815308,149.058762 1282.285889,157.563599 1302.514038,166.728378 
	C1319.254150,174.312790 1335.686401,182.515976 1351.889160,191.111023 
	C1381.725952,206.938461 1410.301758,224.853912 1437.955933,244.310684 
	C1455.819092,256.878723 1472.988647,270.304810 1490.146484,283.764221 
	C1497.745850,289.725433 1504.938354,296.221710 1512.136597,302.674652 
	C1530.413452,319.058929 1548.301270,335.882843 1565.097534,353.773590 
	C1577.666138,367.161163 1589.791504,380.968811 1601.693481,394.993042 
	C1624.608398,421.993408 1645.355957,450.516815 1664.634888,480.157074 
	C1674.197754,494.859375 1683.133667,509.941345 1691.727661,525.237915 
	C1701.129150,541.971680 1709.794556,559.074524 1718.026611,576.395325 
	C1730.818604,603.310364 1742.086060,630.860168 1751.978516,658.979248 
	C1761.537720,686.151550 1769.642334,713.744080 1776.336914,741.751282 
	C1780.484863,759.104004 1784.320923,776.525146 1787.011475,794.177917 
	C1789.318848,809.317627 1792.222412,824.393799 1793.809082,839.607849 
	C1795.154297,852.506775 1796.553223,865.424866 1797.151489,878.425781 
	C1797.735352,891.115234 1799.099609,903.771667 1799.000000,917.001221 
z"/>
<path fill="#F68D2E" opacity="1.000000" stroke="none" 
	d="
M1447.052979,780.846558 
	C1448.395142,788.476624 1449.900269,795.639404 1450.954712,802.868042 
	C1452.770020,815.311646 1454.407959,827.783936 1455.899536,840.270508 
	C1456.405762,844.506348 1456.586304,848.815979 1456.833130,853.060913 
	C1457.791992,869.557922 1458.513916,886.083984 1459.293213,902.585571 
	C1460.267090,923.205994 1459.846924,943.788696 1459.864624,964.378235 
	C1459.878174,980.065613 1458.853882,995.765137 1457.934448,1011.438354 
	C1457.251831,1023.076172 1456.547119,1034.760986 1454.859375,1046.279419 
	C1452.712524,1060.932251 1450.915405,1075.631226 1448.250488,1090.234741 
	C1444.338013,1111.673950 1439.297974,1132.751221 1431.958618,1153.231323 
	C1423.409668,1177.086792 1411.630859,1199.240112 1396.156616,1219.428467 
	C1381.858887,1238.082031 1364.075317,1252.484375 1343.624390,1263.735596 
	C1320.998291,1276.183350 1296.683472,1283.836914 1271.483521,1289.077637 
	C1253.715576,1292.772705 1235.842285,1295.427734 1217.772583,1297.151001 
	C1208.246826,1298.059326 1198.739502,1298.599487 1189.200073,1299.147339 
	C1177.095093,1299.842407 1164.936157,1299.163330 1152.920532,1300.221069 
	C1140.621216,1301.303589 1128.379028,1300.918213 1116.123413,1300.934814 
	C1026.634521,1301.055908 937.145264,1300.969482 847.656372,1301.092651 
	C843.301147,1301.098633 841.803711,1300.278076 841.871582,1295.523926 
	C842.168884,1274.697388 842.129822,1253.862793 841.890930,1233.034668 
	C841.842529,1228.816284 842.989441,1227.898926 847.098511,1227.903931 
	C948.419312,1228.027100 1049.740845,1228.143677 1151.060913,1227.841187 
	C1165.788208,1227.797241 1180.517944,1226.038574 1195.222656,1224.241333 
	C1215.488770,1221.764282 1235.414429,1217.880493 1254.798584,1211.794312 
	C1273.267822,1205.995239 1290.580566,1197.514526 1306.066528,1185.526978 
	C1324.155151,1171.524536 1335.592163,1152.916748 1343.901367,1132.119385 
	C1351.825195,1112.286377 1356.324219,1091.464478 1359.778809,1070.506958 
	C1361.742554,1058.593750 1363.145264,1046.530396 1364.139648,1034.431030 
	C1365.545166,1017.328918 1366.224365,1000.207520 1367.205444,983.092224 
	C1368.625488,958.319885 1367.954956,933.570007 1367.792358,908.826721 
	C1367.697144,894.326355 1366.847778,879.768311 1365.863770,865.277405 
	C1364.765015,849.094910 1363.187012,832.904724 1360.870605,816.854492 
	C1357.204590,791.454834 1352.057983,766.299316 1342.882935,742.235107 
	C1336.509521,725.519592 1327.782349,710.031799 1314.824097,697.379517 
	C1301.204224,684.081299 1284.996826,674.807495 1267.289673,668.149048 
	C1262.001953,666.160706 1256.782715,663.845886 1251.109375,662.894592 
	C1248.976440,662.536926 1248.372559,660.589539 1247.780640,658.512085 
	C1241.087402,635.017273 1231.528931,612.692383 1220.067139,591.144409 
	C1218.030029,587.314758 1215.195801,583.861145 1213.981812,579.062927 
	C1221.217285,579.749817 1228.221191,580.052185 1235.099243,581.146057 
	C1247.938599,583.188049 1260.760376,585.422180 1273.487427,588.067261 
	C1289.987305,591.496460 1306.093140,596.299500 1321.662598,602.888916 
	C1334.285034,608.231018 1346.443481,614.395813 1357.841187,621.996216 
	C1380.005981,636.776611 1397.372192,656.050171 1411.002563,678.855042 
	C1421.873169,697.042480 1430.080444,716.368286 1436.254395,736.588196 
	C1440.652832,750.992371 1444.302979,765.587036 1447.052979,780.846558 
z"/>
<path fill="#F68D2E" opacity="1.000000" stroke="none" 
	d="
M657.999695,1204.000000 
	C657.999756,1210.999512 658.196655,1217.507568 657.919434,1223.995239 
	C657.774292,1227.390503 658.970825,1228.082886 662.130310,1228.067383 
	C686.794678,1227.946655 711.460449,1228.081909 736.124268,1227.915039 
	C739.924866,1227.889404 741.146362,1228.713013 741.103699,1232.759888 
	C740.880310,1253.922729 740.877930,1275.090576 741.105225,1296.253296 
	C741.148926,1300.324585 739.885010,1301.088989 736.112244,1301.080566 
	C683.282837,1300.961670 630.453125,1300.962036 577.623718,1301.083008 
	C573.986694,1301.091431 572.906372,1300.332153 572.908081,1296.489990 
	C573.010864,1057.840088 573.010376,819.190125 572.911133,580.540222 
	C572.909546,576.751953 573.905212,575.914612 577.594666,575.916748 
	C743.249695,576.013794 908.904724,576.012207 1074.559814,575.922363 
	C1078.038086,575.920471 1080.584961,577.285889 1082.853638,579.387451 
	C1103.842651,598.830505 1120.478271,621.551758 1133.473267,646.988708 
	C1133.680420,647.394165 1133.745483,647.872131 1134.079346,649.000000 
	C1131.882935,649.000000 1129.971924,649.000000 1128.060791,649.000000 
	C973.404968,649.000000 818.749084,649.026306 664.093384,648.881042 
	C659.132080,648.876343 657.867554,649.948669 657.871826,655.038391 
	C658.024353,837.858826 657.999695,1020.679443 657.999695,1204.000000 
z"/>
<path fill="#F68D2E" opacity="1.000000" stroke="none" 
	d="
M1242.000000,1184.966553 
	C1240.660156,1190.229492 1238.895996,1195.003418 1238.101929,1199.933472 
	C1236.938232,1207.158447 1232.452148,1209.950928 1225.863281,1210.985840 
	C1211.674316,1213.214600 1197.590088,1215.914795 1183.223389,1217.202026 
	C1169.687378,1218.414673 1156.203857,1219.190674 1142.207520,1218.917236 
	C1146.134521,1208.753906 1149.882202,1198.758789 1153.233032,1188.610107 
	C1161.034302,1164.982178 1166.660522,1140.881836 1171.196777,1116.426025 
	C1174.292236,1099.737793 1176.719604,1082.961060 1178.764648,1066.163818 
	C1180.310303,1053.468018 1181.320435,1040.649902 1182.155151,1027.838135 
	C1183.432617,1008.228271 1184.253662,988.611694 1185.206177,968.990906 
	C1186.724731,937.711365 1185.864136,906.449951 1185.763550,875.192383 
	C1185.721191,862.033569 1184.968628,848.778625 1183.920410,835.614807 
	C1182.567505,818.623230 1181.102173,801.617554 1178.879517,784.723938 
	C1175.805298,761.358521 1171.894409,738.102905 1165.984619,715.250061 
	C1160.705444,694.836731 1154.434937,674.754883 1145.845947,655.437378 
	C1139.701172,641.617249 1132.609497,628.352722 1124.331909,615.687134 
	C1114.649536,600.872253 1103.224365,587.508240 1090.098999,575.753967 
	C1072.507935,560.000488 1052.490601,548.146423 1030.254517,539.863647 
	C1013.711182,533.701477 996.688599,529.679749 979.341431,527.193726 
	C969.939514,525.846313 960.365479,525.329956 950.810181,524.845764 
	C913.212952,522.940918 875.607483,524.697632 838.018188,523.902649 
	C833.766846,523.812744 832.787537,525.017944 832.895935,529.118225 
	C833.195312,540.442932 832.902832,551.782166 833.064697,563.112488 
	C833.107117,566.077148 832.459656,567.095276 829.253113,567.077637 
	C803.755432,566.937561 778.256287,566.938538 752.758545,567.076782 
	C749.571411,567.094055 748.928467,566.106323 748.936462,563.125854 
	C749.033752,526.794922 749.060913,490.463501 748.908020,454.132996 
	C748.892151,450.360809 750.269531,449.927246 753.498413,449.934753 
	C795.829041,450.032867 838.159851,449.999939 880.490662,450.000000 
	C907.822327,450.000031 935.156250,449.780487 962.485168,450.053162 
	C1001.152832,450.438904 1039.007568,456.426270 1075.171265,470.210114 
	C1097.946411,478.890839 1119.269653,490.658234 1138.654053,505.878357 
	C1150.269409,514.998474 1161.037109,524.921997 1170.987793,535.680420 
	C1183.497314,549.205261 1194.765015,563.833008 1203.916260,579.866882 
	C1219.062134,606.404175 1231.754150,634.080444 1241.081665,663.241211 
	C1248.300293,685.808594 1253.846313,708.786743 1257.971191,732.101074 
	C1260.809204,748.141602 1263.622925,764.198792 1265.849365,780.331055 
	C1267.419312,791.705872 1267.897217,803.227844 1269.020752,814.668640 
	C1270.714844,831.919922 1271.240356,849.234863 1272.270996,866.519409 
	C1273.172974,881.650085 1272.644409,896.726379 1272.938354,911.821533 
	C1273.220581,926.315186 1273.433594,940.835144 1272.881958,955.313232 
	C1272.290405,970.836670 1271.537476,986.357117 1270.897827,1001.881714 
	C1270.377563,1014.511780 1269.394165,1027.153687 1267.900146,1039.705078 
	C1265.815308,1057.219360 1263.734253,1074.734497 1261.222900,1092.208008 
	C1257.267944,1119.725830 1251.635010,1146.854126 1244.993652,1173.807739 
	C1244.105103,1177.413818 1243.009277,1180.968872 1242.000000,1184.966553 
z"/>
<path fill="#F68D2E" opacity="1.000000" stroke="none" 
	d="
M748.999451,853.000000 
	C748.999451,789.506958 749.055542,726.513733 748.884827,663.521118 
	C748.872253,658.876099 750.154480,657.853149 754.611694,657.894226 
	C778.773621,658.117188 802.940186,658.135864 827.101562,657.882080 
	C831.780457,657.833008 833.135742,658.771118 833.127441,663.735840 
	C832.957336,765.224365 832.999634,866.713257 832.999634,968.202087 
	C832.999634,1094.521484 833.029785,1220.840942 832.882935,1347.160278 
	C832.877380,1351.937622 833.926331,1353.157593 838.793152,1353.126587 
	C875.454346,1352.892822 912.125549,1353.455444 948.777039,1352.815063 
	C968.201233,1352.475708 987.445129,1349.372559 1006.254333,1344.058228 
	C1020.513184,1340.029419 1034.411255,1335.136963 1047.502930,1328.131348 
	C1056.827637,1323.141357 1066.142822,1318.099365 1074.192017,1311.141602 
	C1075.885498,1309.677734 1077.553345,1310.026733 1079.281494,1310.024292 
	C1104.112061,1309.987793 1128.959473,1310.527832 1153.765137,1309.741699 
	C1163.749268,1309.425293 1173.892822,1310.055786 1183.826172,1308.044556 
	C1184.746826,1307.858032 1185.761353,1308.135132 1187.260620,1308.230713 
	C1184.739258,1313.948364 1180.983398,1318.539062 1177.392334,1322.933716 
	C1169.052368,1333.140015 1160.730103,1343.444458 1151.023315,1352.433960 
	C1134.804321,1367.454590 1117.343262,1380.747681 1097.985352,1391.628662 
	C1073.283447,1405.513550 1046.803833,1414.502441 1019.384399,1420.681274 
	C1007.672729,1423.320557 995.622070,1424.767700 983.609070,1426.169434 
	C966.096619,1428.212891 948.583740,1427.975220 931.048462,1427.986084 
	C872.221619,1428.022461 813.394592,1427.944946 754.568176,1428.107788 
	C750.026184,1428.120361 748.891235,1426.990845 748.894165,1422.437744 
	C749.016968,1232.791870 748.999451,1043.145996 748.999451,853.000000 
z"/>
<path fill="#F6BE00" opacity="1.000000" stroke="none" 
	d="
M1566.848389,692.288269 
	C1574.266357,690.529663 1580.518677,686.629395 1587.217651,683.865540 
	C1607.726929,675.404114 1628.081787,666.567078 1648.461304,657.794128 
	C1651.837646,656.340759 1655.692383,652.528931 1658.325928,653.792786 
	C1660.890625,655.023621 1661.557007,660.128479 1663.147217,663.489624 
	C1665.942261,669.397583 1666.012695,669.480225 1660.311646,671.933167 
	C1634.195435,683.169983 1608.043091,694.323181 1581.925415,705.556946 
	C1566.624634,712.138184 1551.338379,718.754822 1536.105469,725.491028 
	C1532.558350,727.059631 1530.045410,727.214905 1528.935425,722.767395 
	C1528.587402,721.373535 1527.886963,720.062683 1527.303833,718.733154 
	C1522.249512,707.207458 1522.564941,706.156616 1533.198730,698.939209 
	C1536.893677,696.431519 1539.787354,692.996399 1543.152710,690.098816 
	C1558.998291,676.455505 1574.470337,662.378174 1590.051392,648.428589 
	C1591.394165,647.226501 1592.559937,645.826660 1594.338379,643.962646 
	C1589.783691,644.307312 1586.739868,646.576355 1583.447510,647.984924 
	C1560.566040,657.773865 1537.740845,667.694763 1514.916016,677.615845 
	C1511.659912,679.031189 1509.462036,679.319824 1508.273315,674.890503 
	C1507.200806,670.894409 1503.075684,666.805298 1504.510132,663.265503 
	C1505.772827,660.149414 1511.222290,659.594238 1514.875366,658.028442 
	C1540.760986,646.933594 1566.679565,635.915833 1592.540283,624.763367 
	C1605.907471,618.998657 1619.183594,613.022278 1632.487427,607.111328 
	C1636.185791,605.468262 1637.793945,605.271729 1640.457764,610.057922 
	C1645.266968,618.698730 1643.643677,623.566772 1636.337158,629.463928 
	C1622.408936,640.705200 1609.235107,652.883972 1595.800781,664.732971 
	C1588.994263,670.736267 1582.305176,676.872620 1575.557495,682.942749 
	C1572.628784,685.577393 1569.686279,688.196838 1566.527344,691.075500 
	C1566.469482,691.701904 1566.572144,692.092896 1566.848389,692.288269 
z"/>
<path fill="#F6BE00" opacity="1.000000" stroke="none" 
	d="
M1376.807983,448.710632 
	C1369.562378,455.762909 1363.099121,463.048309 1356.847656,470.523315 
	C1355.588257,472.029114 1354.383911,472.685303 1352.703125,471.181061 
	C1349.768311,468.554443 1346.852417,465.903656 1343.843506,463.363708 
	C1341.553345,461.430481 1341.612793,459.931488 1343.735107,457.669800 
	C1355.704590,444.914642 1367.528320,432.022095 1379.356812,419.135162 
	C1389.834595,407.719818 1400.286377,396.280365 1410.688477,384.796082 
	C1419.401733,375.176453 1428.091309,365.533661 1436.652100,355.778839 
	C1439.294434,352.767670 1441.213013,352.333923 1444.193848,355.551483 
	C1450.823730,362.708313 1458.762085,368.532471 1465.661011,375.379761 
	C1477.814575,387.442474 1482.531616,398.823395 1469.216309,415.219238 
	C1461.151123,425.150330 1452.585571,434.652832 1443.193726,443.387787 
	C1441.014160,445.414856 1438.206055,446.852844 1435.769897,446.723206 
	C1431.392212,446.490326 1430.363770,448.945312 1430.119629,452.045135 
	C1429.575928,458.948639 1425.186279,463.564758 1421.086182,468.403656 
	C1412.074463,479.038849 1401.796875,488.595673 1394.068237,500.335205 
	C1392.897339,502.114075 1392.346680,504.083740 1391.278198,506.323334 
	C1386.948730,503.013916 1383.830688,498.650848 1379.382690,495.847900 
	C1377.084839,494.399933 1378.895508,492.487152 1379.470581,491.221893 
	C1381.920898,485.831360 1385.793457,481.356079 1389.620728,476.903442 
	C1396.373901,469.046631 1403.285278,461.325256 1409.985107,453.423859 
	C1412.705200,450.215820 1412.819824,446.929840 1410.177246,443.187805 
	C1406.283569,437.674164 1400.470215,434.317169 1395.980103,429.519104 
	C1395.008057,428.480408 1394.180298,429.256836 1393.487915,430.031647 
	C1388.005249,436.167175 1382.530640,442.309967 1376.807983,448.710632 
z"/>
<path fill="#F6BE00" opacity="1.000000" stroke="none" 
	d="
M842.235596,317.615234 
	C843.378418,320.554626 843.721924,323.681274 845.428406,325.588287 
	C848.905518,329.474213 846.919373,330.284760 843.297913,331.019440 
	C840.616699,331.563263 837.920959,332.154816 835.337463,333.035461 
	C830.230042,334.776459 828.368286,331.797699 826.981262,327.740509 
	C824.096008,319.301025 821.872253,310.695770 819.942810,301.989136 
	C818.655396,296.179474 816.956848,290.449158 815.196472,284.759399 
	C813.513367,279.319092 810.313354,277.158661 804.918335,278.070648 
	C799.495239,278.987366 794.159973,280.425049 788.788452,281.644196 
	C787.000244,282.050049 786.107727,282.094940 786.768860,284.936523 
	C790.840637,302.437988 794.200317,320.103455 798.832642,337.481873 
	C799.328552,339.342377 799.317322,340.759766 796.582397,341.263275 
	C792.633118,341.990234 788.843933,343.489014 784.811340,344.071747 
	C782.535645,344.400574 781.489685,343.907013 780.986328,341.593964 
	C776.547424,321.197174 771.890625,300.848083 767.304871,280.485352 
	C761.573242,255.034348 756.156738,229.511566 750.087769,204.134628 
	C749.676514,202.414719 749.910706,201.352417 752.390137,200.884460 
	C763.855347,198.720551 775.266174,196.247940 786.649658,193.678162 
	C796.576294,191.437256 810.481140,193.814621 815.390076,206.896759 
	C821.003540,221.856461 824.191589,237.403976 825.992554,253.251938 
	C826.048645,253.745377 826.192932,254.373108 825.967896,254.732864 
	C821.549927,261.795013 825.946228,266.388245 829.764221,271.968445 
	C834.661926,279.126495 834.568054,288.303833 836.930786,296.525299 
	C838.894958,303.359955 840.364441,310.336761 842.235596,317.615234 
z"/>
<path fill="#F6BE00" opacity="1.000000" stroke="none" 
	d="
M316.003815,808.995117 
	C324.414093,810.588013 331.812897,812.834656 337.399811,819.652710 
	C341.717926,824.922485 341.815765,831.150757 341.401550,836.669556 
	C340.344971,850.746521 337.779175,864.710205 335.825043,878.663391 
	C322.932251,876.752258 310.264099,874.921692 297.612427,872.983643 
	C287.969330,871.506348 278.355194,869.840332 268.713379,868.354187 
	C258.899414,866.841431 249.065735,865.456848 239.243622,863.996460 
	C229.585571,862.560303 219.927933,861.120728 210.276459,859.641235 
	C204.811157,858.803406 199.382355,857.630676 193.889587,857.111816 
	C191.374619,856.874207 190.619125,856.048279 191.013901,853.841797 
	C193.532669,839.763855 194.472534,825.380066 198.249023,811.566833 
	C201.451431,799.853516 215.880005,792.662415 227.856293,795.216187 
	C237.697678,797.314697 247.736267,798.509399 257.705780,799.980347 
	C267.545105,801.432068 277.418182,802.655518 287.256317,804.114807 
	C295.289917,805.306458 303.296234,806.683899 311.308868,808.013916 
	C312.743469,808.252075 314.149811,808.660645 316.003815,808.995117 
z"/>
<path fill="#F6BE00" opacity="1.000000" stroke="none" 
	d="
M1559.216431,847.487671 
	C1559.126221,842.077209 1557.837402,837.284241 1558.745850,832.011475 
	C1560.758057,820.332397 1567.524048,813.095520 1577.482666,808.023987 
	C1585.782715,803.796936 1595.034424,803.601135 1603.939209,802.056396 
	C1620.133667,799.247192 1636.349121,796.500000 1652.629150,794.261658 
	C1663.514038,792.765259 1674.332886,790.433594 1685.475952,794.631592 
	C1697.565674,799.186279 1703.394043,808.195984 1705.876831,819.833923 
	C1707.890747,829.273987 1706.962036,838.516785 1701.069336,846.825195 
	C1694.697388,855.809509 1685.564087,859.837402 1675.261230,861.964783 
	C1674.031494,862.218750 1673.167358,861.907654 1672.945557,860.232117 
	C1672.477783,856.696472 1671.512451,853.226501 1671.050903,849.690430 
	C1670.642700,846.563171 1670.928223,844.521423 1675.284424,843.579712 
	C1680.623779,842.425415 1686.421021,840.452454 1688.854492,834.378296 
	C1692.641602,824.924988 1688.370117,809.698730 1673.829590,809.938232 
	C1662.134033,810.130920 1650.831421,812.976379 1639.322876,814.399292 
	C1629.481323,815.616211 1619.702393,817.368286 1609.919434,819.023438 
	C1601.922974,820.376282 1593.707520,820.751709 1586.015015,823.527405 
	C1573.852173,827.916077 1573.055176,837.038757 1576.535645,846.948975 
	C1578.709351,853.138428 1583.580811,855.771545 1590.136230,856.064026 
	C1599.603760,856.486328 1608.667603,853.785889 1617.965820,852.994995 
	C1621.525635,852.692200 1620.015381,850.057556 1619.709595,848.529175 
	C1618.413086,842.049377 1618.401367,841.825745 1624.625977,841.055298 
	C1626.894409,840.774475 1629.152588,840.940063 1631.426758,840.135193 
	C1632.922363,839.605957 1634.740967,839.396240 1635.127808,842.423035 
	C1636.096069,849.997803 1637.688110,857.491821 1638.977417,865.027283 
	C1639.301880,866.922913 1638.787720,867.769348 1636.446411,868.099670 
	C1623.874512,869.873047 1611.410522,872.660034 1598.792114,873.794434 
	C1580.989136,875.394958 1564.320557,868.718079 1559.216431,847.487671 
z"/>
<path fill="#F6BE00" opacity="1.000000" stroke="none" 
	d="
M1242.727661,332.679260 
	C1252.875122,314.126709 1262.881470,295.925568 1272.701904,277.624634 
	C1276.697998,270.177643 1280.429932,262.594299 1284.862427,255.381500 
	C1285.793213,253.866638 1286.052246,252.467056 1288.409912,253.716049 
	C1299.876831,259.790558 1311.442871,265.647919 1322.347290,272.757477 
	C1334.190674,280.479156 1335.921753,292.723114 1330.631226,304.247437 
	C1324.486572,317.632355 1318.119995,331.103546 1308.750732,342.727875 
	C1300.692871,352.725159 1292.009399,354.008209 1280.108154,349.458130 
	C1273.801636,347.046967 1267.871216,343.578949 1261.958130,340.255219 
	C1260.160034,339.244537 1259.642944,338.643280 1258.450317,340.928833 
	C1251.694824,353.875061 1244.742432,366.718933 1237.807861,379.571167 
	C1236.042236,382.843597 1234.835938,387.283600 1232.044922,388.912537 
	C1228.741455,390.840668 1225.875732,386.153229 1222.597290,384.768280 
	C1215.937256,381.954773 1215.978027,381.600403 1219.637451,374.841949 
	C1227.207031,360.861572 1234.880859,346.937683 1242.727661,332.679260 
z"/>
<path fill="#F6BE00" opacity="1.000000" stroke="none" 
	d="
M1142.559082,217.223343 
	C1129.930664,210.011353 1119.757812,214.037643 1114.994507,230.212036 
	C1112.540771,238.543594 1115.884766,244.993439 1120.741699,251.307846 
	C1129.645996,262.884033 1139.532471,273.828644 1145.655151,287.298950 
	C1152.448853,302.245392 1149.004272,316.392639 1140.841309,329.502625 
	C1129.984253,346.939453 1107.930786,347.939331 1091.926392,337.802063 
	C1083.348511,332.368805 1078.104614,323.976227 1078.025513,313.247925 
	C1077.992798,308.805450 1078.011230,304.398163 1078.805054,299.930817 
	C1079.316406,297.053864 1080.400024,296.567719 1082.571655,297.078400 
	C1086.662354,298.040466 1090.719238,299.165924 1094.745483,300.372589 
	C1096.468384,300.888885 1096.638062,301.761047 1096.247803,303.902802 
	C1093.922119,316.666626 1099.041016,324.608765 1110.958984,327.439941 
	C1114.458984,328.271393 1117.763062,327.153351 1120.393188,324.983521 
	C1131.280762,316.001038 1135.664429,300.689667 1125.940796,287.318695 
	C1119.322144,278.217255 1112.141357,269.583252 1105.208130,260.744629 
	C1095.958496,248.953217 1093.775757,232.131821 1100.967651,216.810974 
	C1107.103882,203.738770 1117.244507,196.682755 1131.467773,197.187363 
	C1144.416748,197.646790 1156.021362,201.953751 1162.875732,214.343536 
	C1168.009399,223.623062 1167.683838,233.410080 1165.806519,243.352997 
	C1165.542236,244.753036 1164.502319,244.515411 1163.214111,244.169601 
	C1158.680664,242.952637 1154.080811,241.971466 1149.483765,241.008423 
	C1147.665039,240.627457 1148.432739,239.965012 1148.604004,238.676987 
	C1149.643188,230.858032 1149.825073,223.133972 1142.559082,217.223343 
z"/>
<path fill="#F6BE00" opacity="1.000000" stroke="none" 
	d="
M564.984985,433.371460 
	C570.785889,455.713379 554.802979,473.488281 536.492310,476.986786 
	C522.624756,479.636322 512.450684,472.888306 503.209869,463.763062 
	C501.752625,462.324036 501.923706,461.365417 503.341187,460.133820 
	C506.691406,457.222931 509.955139,454.212555 513.301636,451.297272 
	C515.080566,449.747559 516.453613,450.645142 517.759216,452.148987 
	C520.477539,455.280029 523.598022,457.696777 527.676636,459.080109 
	C535.263550,461.653290 540.653076,458.504883 545.409607,453.102386 
	C549.548767,448.401245 549.504639,443.299072 547.298279,437.708435 
	C540.662476,420.893860 527.538574,416.037842 510.223450,418.893982 
	C509.735107,418.974518 509.231934,418.987274 508.735291,418.991669 
	C501.295715,419.057343 493.866058,419.589935 486.448151,419.831604 
	C463.157379,420.590332 448.056763,404.833282 444.321777,384.681091 
	C442.040009,372.369904 448.172424,361.889557 457.673004,354.158966 
	C464.433716,348.657837 472.427277,345.197540 481.567017,346.014496 
	C492.632477,347.003510 501.163208,352.636444 508.308441,360.788055 
	C509.448151,362.088257 508.803589,362.892273 507.849976,363.669006 
	C504.429504,366.455078 500.843719,369.053925 497.574921,372.005371 
	C495.118744,374.223145 494.339203,371.769012 493.285126,370.705109 
	C488.917053,366.296478 483.952576,363.564331 477.522980,363.750000 
	C469.958954,363.968445 465.347198,368.734375 462.369690,374.611023 
	C459.364624,380.541962 462.638947,386.167114 465.846527,391.311401 
	C470.824005,399.294373 478.104492,402.227936 487.417908,402.122589 
	C498.858704,401.993225 510.245544,400.141418 521.690674,401.036926 
	C530.959961,401.762238 540.070862,403.095795 547.876587,408.949341 
	C554.615601,414.002930 558.955627,420.887604 562.849854,428.073914 
	C563.652771,429.555511 564.355957,431.279968 564.984985,433.371460 
z"/>
<path fill="#F6BE00" opacity="1.000000" stroke="none" 
	d="
M401.067017,520.998291 
	C417.194244,517.169861 431.704529,517.897949 444.481628,529.749634 
	C453.282684,537.913208 459.804504,546.841003 458.914734,559.236572 
	C457.377411,580.654114 434.963348,601.761963 410.112579,589.519592 
	C406.804626,587.890015 401.967010,587.294922 400.781158,583.835266 
	C399.586334,580.349426 404.113647,578.125244 405.990906,575.264221 
	C409.830536,569.412415 409.895172,569.454834 416.318817,572.663086 
	C427.203339,578.099487 437.872711,573.690857 441.347321,562.143433 
	C443.218445,555.924927 439.866364,551.198120 436.208008,546.727356 
	C427.262329,535.795227 416.045410,534.185791 403.132721,538.330078 
	C393.141541,541.536621 383.031494,544.427063 372.857758,546.996521 
	C360.566681,550.100647 349.353363,547.544006 339.198700,539.783203 
	C333.086212,535.111694 328.310699,529.671875 325.697845,522.319824 
	C321.618896,510.842407 324.283112,500.430756 330.758270,490.834625 
	C343.116852,472.519257 364.977203,472.193146 381.088501,483.391479 
	C383.075073,484.772278 382.999969,485.554749 381.965637,487.037201 
	C381.216217,488.111328 380.206360,489.004639 379.464813,490.083191 
	C377.544037,492.876984 376.303772,496.692596 373.685669,498.312286 
	C370.433197,500.324493 367.878387,495.949768 364.731812,494.918182 
	C350.548096,490.268127 339.923706,500.593689 341.068512,512.286865 
	C341.778625,519.540100 347.476654,523.353149 352.746002,527.272766 
	C360.622772,533.131958 368.857269,529.882935 376.881134,527.888489 
	C384.875305,525.901367 392.722748,523.324158 401.067017,520.998291 
z"/>
<path fill="#F6BE00" opacity="1.000000" stroke="none" 
	d="
M383.700500,694.715820 
	C379.050568,705.794495 374.484741,716.497131 370.323730,727.354858 
	C369.196777,730.295532 367.343475,729.460815 365.882629,728.878540 
	C356.289703,725.054504 346.779663,721.022156 337.249786,717.040527 
	C322.921509,711.054138 308.616516,705.011719 294.270020,699.069336 
	C274.832733,691.018250 255.402771,682.946228 235.867615,675.138489 
	C233.210800,674.076721 234.070129,673.226013 234.734314,671.597290 
	C239.009323,661.113892 243.220551,650.604309 247.430893,640.094604 
	C249.353577,635.295349 251.173065,630.454102 253.145767,625.675903 
	C254.059418,623.462891 254.744263,621.269775 258.202942,623.449768 
	C260.273010,624.754517 262.807709,626.071594 265.244598,626.527527 
	C270.665039,627.541565 269.731598,630.120605 268.089355,633.867188 
	C264.193817,642.754150 260.782959,651.853088 256.915955,660.753357 
	C255.748703,663.439880 256.495575,664.487122 258.893219,665.462158 
	C270.271576,670.089111 281.629059,674.768799 292.953827,679.525269 
	C295.116455,680.433533 295.433716,679.763550 296.216888,677.706909 
	C299.203400,669.864441 302.811249,662.259094 305.815582,654.422729 
	C307.051575,651.198914 308.417572,650.343994 311.455475,652.063232 
	C313.423401,653.177002 315.490967,654.445190 317.655792,654.816040 
	C323.155426,655.758240 322.225372,659.096436 320.809204,662.524963 
	C317.973145,669.390930 315.168030,676.286560 311.901733,682.950195 
	C310.446503,685.919006 311.431793,686.975220 313.891235,687.989014 
	C324.351990,692.300842 334.801666,696.639587 345.251312,700.978394 
	C348.826508,702.462952 352.488983,703.781311 355.930420,705.531738 
	C359.363220,707.277893 361.206055,706.666260 362.638092,702.946533 
	C366.237946,693.595703 370.394775,684.454468 373.821320,675.044556 
	C374.878265,672.142151 375.737579,672.071960 378.260895,672.861511 
	C380.010468,673.409119 381.500763,674.330444 383.106445,675.055176 
	C390.807007,678.530823 390.766663,678.567505 387.300110,686.335449 
	C386.113708,688.993896 385.054230,691.708923 383.700500,694.715820 
z"/>
<path fill="#F6BE00" opacity="1.000000" stroke="none" 
	d="
M642.720459,383.311523 
	C623.969177,345.876404 605.500549,308.721436 586.798157,271.684509 
	C585.179749,268.479401 585.687134,267.462036 588.606873,266.033173 
	C603.220398,258.881561 617.763672,251.585464 632.285339,244.248413 
	C634.501648,243.128632 635.726685,243.133423 637.002075,245.620468 
	C643.058838,257.431488 643.133423,257.407471 631.051758,263.456451 
	C624.505310,266.734100 617.940247,269.974609 611.373840,273.212311 
	C609.376282,274.197266 608.457214,274.996643 609.835327,277.637543 
	C615.551880,288.591400 620.971313,299.703674 626.309448,310.848969 
	C627.438477,313.206360 628.595276,312.854218 630.341675,311.961182 
	C638.169128,307.958588 646.055420,304.069000 653.833862,299.974121 
	C655.907837,298.882294 656.726257,299.309723 657.787170,301.292694 
	C664.248474,313.369537 664.293640,313.335052 651.980286,319.518463 
	C647.182800,321.927704 642.500305,324.595337 637.583191,326.724365 
	C635.242249,327.737976 635.197693,328.722107 636.163879,330.631226 
	C643.372620,344.875916 650.641846,359.091736 657.643127,373.438141 
	C659.025208,376.270264 660.343506,375.989380 662.529785,374.866364 
	C671.508728,370.254242 680.555359,365.772919 689.507874,361.110596 
	C692.413513,359.597412 694.005249,359.893799 695.609436,363.085693 
	C701.045837,373.902435 701.175232,373.832458 690.350403,379.253510 
	C678.272095,385.302307 666.137512,391.243622 654.163147,397.491760 
	C651.068909,399.106262 649.933533,398.691711 648.706055,395.463409 
	C647.152283,391.376709 644.894958,387.557526 642.720459,383.311523 
z"/>
<path fill="#F6BE00" opacity="1.000000" stroke="none" 
	d="
M968.032410,247.331543 
	C968.004578,270.964203 967.939331,294.122253 968.069031,317.279144 
	C968.088135,320.684753 967.726562,322.618530 963.617676,322.061768 
	C959.226685,321.466797 953.304810,323.913086 950.754272,321.050903 
	C948.570190,318.600067 950.035461,312.832886 950.014648,308.531769 
	C949.967957,298.869080 949.441650,289.167206 950.108765,279.550568 
	C951.918640,253.462326 950.484863,227.362411 950.993408,201.275452 
	C950.999939,200.942337 950.975464,200.607040 951.004517,200.276184 
	C951.732422,191.999222 951.733337,191.999451 943.427551,191.999878 
	C938.429504,192.000137 933.428406,191.896149 928.434753,192.044342 
	C926.011963,192.116241 925.017639,191.651764 924.882019,188.849365 
	C924.678955,184.650146 926.301453,180.723434 926.068909,176.560684 
	C925.948792,174.409775 927.869751,174.928833 929.009827,175.041061 
	C950.404175,177.146744 971.851196,175.490189 993.267212,175.951599 
	C995.516296,176.000061 995.876282,176.831192 996.079773,178.865387 
	C996.499451,183.060776 994.773132,186.990097 994.974915,191.124390 
	C995.097900,193.643082 993.127380,192.907242 991.793579,192.984833 
	C985.500916,193.350845 979.344543,191.607574 973.012024,191.871719 
	C969.720093,192.009033 968.891907,192.873840 968.926941,196.084122 
	C969.090820,211.076508 968.998657,226.071686 968.999084,241.065857 
	C968.999146,243.047607 969.293396,245.076096 968.032410,247.331543 
z"/>
<path fill="#F6BE00" opacity="1.000000" stroke="none" 
	d="
M1468.012939,578.037109 
	C1457.280273,586.037292 1457.680420,585.719055 1449.659546,575.632568 
	C1446.044556,571.086609 1448.241211,570.113647 1451.470459,567.779358 
	C1481.039673,546.405884 1510.481934,524.857178 1540.019775,503.440094 
	C1547.621582,497.928192 1555.504272,492.803375 1563.094727,487.276459 
	C1565.224854,485.725433 1566.170898,485.566528 1567.614136,487.992920 
	C1569.349243,490.910339 1571.530029,493.585785 1573.701660,496.214142 
	C1575.898193,498.872620 1575.506104,500.709045 1572.704590,502.704346 
	C1542.551270,524.180115 1512.437134,545.711121 1482.355469,567.286987 
	C1477.587036,570.707153 1473.031860,574.424561 1468.012939,578.037109 
z"/>
<path fill="#F6BE00" opacity="1.000000" stroke="none" 
	d="
M1372.725830,1488.211914 
	C1368.503784,1482.994751 1364.612549,1477.969971 1360.532104,1473.103760 
	C1358.719116,1470.941650 1357.717163,1469.706665 1360.861206,1467.436523 
	C1366.754517,1463.181763 1371.666016,1457.664673 1378.712891,1454.901978 
	C1383.557129,1453.002808 1387.413940,1454.375000 1390.826904,1457.439819 
	C1394.083496,1460.364136 1395.688599,1464.146240 1394.119629,1468.735596 
	C1397.605225,1469.491821 1401.148804,1468.286621 1404.268433,1470.703979 
	C1410.417480,1475.468872 1410.337891,1482.694336 1407.033325,1488.303223 
	C1402.662842,1495.721558 1395.504639,1500.091797 1388.080811,1504.017700 
	C1386.337524,1504.939819 1385.937012,1504.181396 1384.880005,1502.793701 
	C1381.121704,1497.859863 1376.977661,1493.219971 1372.725830,1488.211914 
z"/>
<path fill="#F6BE00" opacity="1.000000" stroke="none" 
	d="
M511.775574,1450.760010 
	C514.143738,1447.765625 515.898376,1447.324585 518.817993,1450.107056 
	C523.638428,1454.701172 529.591431,1458.012573 533.423584,1463.784058 
	C537.398560,1469.770630 536.521851,1473.851685 533.260803,1479.083740 
	C530.201965,1483.991333 524.792480,1484.913330 518.379333,1483.214844 
	C515.850708,1482.545166 513.864685,1480.743164 511.018280,1480.406372 
	C512.662231,1489.066772 514.284119,1497.610596 515.900330,1506.155029 
	C509.619110,1504.563354 506.939392,1500.490845 505.972290,1491.564209 
	C505.428802,1486.547974 504.623596,1481.558228 503.840912,1476.571533 
	C503.727020,1475.845703 503.080231,1475.203369 502.582275,1474.356201 
	C499.367401,1478.274292 496.236847,1482.217773 492.963318,1486.038696 
	C490.386505,1489.046265 489.066620,1485.202637 487.314331,1484.577148 
	C484.932861,1483.727173 486.535950,1482.162598 487.637421,1480.803955 
	C495.650024,1470.920044 503.581207,1460.970337 511.775574,1450.760010 
z"/>
<path fill="#F6BE00" opacity="1.000000" stroke="none" 
	d="
M1433.254517,1438.839478 
	C1428.071655,1433.642334 1423.252563,1428.581909 1418.189697,1423.778320 
	C1415.740601,1421.454834 1415.242432,1419.672729 1418.092407,1417.378052 
	C1424.150513,1412.500732 1428.021240,1405.125977 1436.357910,1402.769409 
	C1441.647217,1401.274170 1445.861328,1402.522827 1449.264160,1405.965088 
	C1452.535156,1409.273926 1453.964844,1413.449707 1452.242920,1418.484497 
	C1451.110352,1421.795898 1449.617798,1424.719238 1447.110352,1427.755249 
	C1456.553589,1426.896606 1465.576416,1426.076172 1474.568481,1425.258545 
	C1470.787354,1432.843140 1463.701782,1433.792603 1456.419067,1433.939453 
	C1451.391235,1434.040894 1446.394287,1433.999268 1440.909180,1435.645386 
	C1443.723022,1438.377075 1446.334717,1440.865845 1448.894165,1443.407104 
	C1453.656616,1448.136230 1453.643921,1448.148926 1448.473755,1452.760742 
	C1443.217896,1448.492676 1439.411987,1442.649536 1433.254517,1438.839478 
z"/>
<path fill="#F6BE00" opacity="1.000000" stroke="none" 
	d="
M361.999237,1261.096924 
	C361.861938,1268.041138 358.236633,1273.092773 352.452576,1274.829224 
	C346.772186,1276.534546 340.660248,1273.518433 334.902130,1265.614380 
	C332.767151,1274.735107 330.786255,1283.197632 328.713959,1292.050659 
	C324.582214,1287.169312 323.138153,1282.199341 324.969086,1276.152710 
	C326.823761,1270.027832 328.127380,1263.736084 329.924957,1256.500854 
	C324.893158,1259.257080 320.603821,1261.593384 316.328491,1263.955078 
	C314.608185,1264.905273 313.103638,1265.358887 312.364380,1262.826782 
	C311.803253,1260.904419 309.492676,1259.211304 313.046967,1257.356201 
	C324.979980,1251.128052 336.744720,1244.575684 348.531403,1238.070312 
	C350.650360,1236.900879 351.928986,1236.928833 352.872681,1239.451782 
	C355.571716,1246.667480 361.142731,1252.651123 361.999237,1261.096924 
z"/>
<path fill="#F6BE00" opacity="1.000000" stroke="none" 
	d="
M1575.556763,1173.989990 
	C1580.340942,1157.227173 1601.506958,1151.779175 1614.179932,1162.502075 
	C1621.103394,1168.360352 1624.880981,1178.233154 1621.743896,1188.634155 
	C1618.936890,1197.941284 1611.768677,1203.839600 1602.126221,1205.035767 
	C1589.627075,1206.585938 1579.837891,1200.795166 1575.673218,1189.052856 
	C1573.999146,1184.332764 1575.015503,1179.244019 1575.556763,1173.989990 
z"/>
<path fill="#F6BE00" opacity="1.000000" stroke="none" 
	d="
M806.998901,1602.265625 
	C806.996826,1613.324829 802.844971,1616.632202 788.069397,1617.148438 
	C793.240601,1624.353760 798.154358,1631.200195 803.555420,1638.725830 
	C796.702454,1638.769775 792.216736,1636.371216 788.904785,1631.052856 
	C785.501038,1625.586792 781.623779,1620.415527 777.594177,1614.596069 
	C776.252808,1619.940308 774.877930,1624.376099 774.115112,1628.914673 
	C773.756287,1631.049927 773.573547,1632.685425 771.075989,1631.879761 
	C769.164307,1631.263062 766.182617,1631.279419 767.006531,1627.767090 
	C770.073853,1614.690918 773.098328,1601.604370 776.240967,1588.546387 
	C776.619263,1586.974487 777.586121,1585.324829 779.722229,1586.052612 
	C786.432861,1588.339600 793.689514,1588.583374 800.150452,1591.939941 
	C804.364502,1594.129272 806.504272,1597.296509 806.998901,1602.265625 
z"/>
<path fill="#F6BE00" opacity="1.000000" stroke="none" 
	d="
M289.797485,1086.951294 
	C307.635529,1095.307129 308.989929,1120.405396 292.350952,1130.073853 
	C284.372040,1134.710083 275.928192,1134.511719 268.011993,1130.349854 
	C260.475830,1126.387695 256.266296,1119.580078 256.055237,1110.935669 
	C255.717560,1097.105835 260.959229,1089.725708 273.702698,1085.819946 
	C278.978546,1084.202881 284.323883,1084.273804 289.797485,1086.951294 
z"/>
<path fill="#F7BE00" opacity="1.000000" stroke="none" 
	d="
M649.747192,1584.775879 
	C647.141846,1589.197510 645.610046,1586.769897 644.763367,1584.229980 
	C642.979553,1578.878784 641.540527,1573.411499 640.006592,1567.978516 
	C637.990417,1560.837524 636.018921,1553.683960 633.750305,1545.537720 
	C629.476685,1554.130859 625.656921,1561.869629 621.774536,1569.577026 
	C620.792847,1571.525879 620.281433,1573.902710 616.845032,1572.105835 
	C613.725769,1570.474854 613.422363,1568.903076 614.926208,1566.042725 
	C621.000488,1554.489502 626.978088,1542.885132 632.923401,1531.264771 
	C633.478271,1530.180420 633.880188,1528.940063 635.242981,1529.202637 
	C636.433167,1529.431885 636.745789,1530.582031 637.076477,1531.810669 
	C639.970520,1542.563477 643.022949,1553.273560 645.983032,1564.008789 
	C646.536621,1566.016479 646.790344,1568.120361 648.510132,1569.932861 
	C652.550537,1561.860107 656.564697,1553.928589 660.483459,1545.950073 
	C661.516541,1543.846802 662.293213,1542.324463 665.147888,1543.886353 
	C667.738037,1545.303589 668.751648,1546.386230 667.195129,1549.450684 
	C661.305847,1561.045532 655.704590,1572.786621 649.747192,1584.775879 
z"/>
<path fill="#F7BF00" opacity="1.000000" stroke="none" 
	d="
M1001.081787,1651.507080 
	C991.960999,1642.171265 983.106201,1633.126831 974.251343,1624.082275 
	C973.852417,1624.215820 973.453430,1624.349365 973.054504,1624.482788 
	C973.054504,1628.986816 972.323303,1633.649170 973.255371,1637.951294 
	C974.232605,1642.462158 973.540039,1646.861328 974.019714,1651.273438 
	C974.327576,1654.105225 972.616455,1654.136841 970.635986,1654.002319 
	C968.939636,1653.887207 967.057739,1654.647217 966.937195,1651.550781 
	C966.430725,1638.540161 965.623230,1625.541626 965.065735,1612.532593 
	C965.003906,1611.090088 963.930298,1609.012817 966.009033,1608.142578 
	C968.020447,1607.300415 969.368896,1608.780151 970.666748,1610.135742 
	C979.472168,1619.330811 988.301575,1628.503174 997.752625,1638.337646 
	C998.119080,1633.724121 997.691711,1630.030518 997.176270,1626.165894 
	C996.477539,1620.927368 997.137451,1615.521240 996.953857,1610.195923 
	C996.834595,1606.736328 998.824585,1606.157104 1001.549561,1605.986816 
	C1005.167603,1605.760864 1004.017151,1608.479004 1003.939392,1610.106689 
	C1003.416138,1621.066406 1005.708069,1631.926636 1005.005005,1642.883911 
	C1004.919128,1644.222534 1005.520447,1645.433105 1005.793213,1646.683350 
	C1006.522400,1650.026001 1006.446594,1653.259644 1001.081787,1651.507080 
z"/>
<path fill="#F6BE00" opacity="1.000000" stroke="none" 
	d="
M1634.830566,1115.034912 
	C1636.344727,1115.984009 1638.024780,1115.545532 1638.914429,1116.168701 
	C1640.292480,1117.134033 1644.182861,1115.786865 1642.573608,1120.168213 
	C1641.526978,1123.017090 1641.495361,1124.269531 1637.656860,1123.203003 
	C1625.206665,1119.743652 1612.544678,1117.046387 1599.968018,1114.040405 
	C1598.857178,1113.774902 1597.260132,1114.685669 1596.955688,1112.457153 
	C1596.676880,1110.416016 1598.067139,1109.937500 1599.300293,1109.262207 
	C1610.659424,1103.040894 1622.034180,1096.847900 1634.232056,1090.195435 
	C1627.148438,1088.348511 1620.765625,1086.555664 1614.310913,1085.076782 
	C1612.277100,1084.610596 1610.195923,1084.095093 1608.121094,1083.735474 
	C1606.845581,1083.514526 1602.904907,1084.293335 1604.403076,1079.915894 
	C1605.468384,1076.802979 1605.612183,1075.532715 1609.780151,1076.716064 
	C1621.416504,1080.020020 1633.353394,1082.256104 1645.135742,1085.064819 
	C1646.828247,1085.468262 1649.304199,1085.053345 1649.931396,1087.428955 
	C1650.669800,1090.226074 1648.062744,1090.329712 1646.465332,1091.214600 
	C1636.545898,1096.710327 1626.636597,1102.224121 1616.714111,1107.714111 
	C1615.766479,1108.238403 1614.200928,1108.336182 1614.466064,1109.776611 
	C1614.640381,1110.722534 1615.876587,1110.835083 1616.908813,1111.051758 
	C1622.761475,1112.279907 1628.579956,1113.671143 1634.830566,1115.034912 
z"/>
<path fill="#F6BE00" opacity="1.000000" stroke="none" 
	d="
M1301.719238,1508.704102 
	C1308.785522,1504.068604 1315.585571,1499.687988 1322.339600,1495.237549 
	C1324.559570,1493.774780 1325.723022,1494.558105 1327.172974,1496.548218 
	C1328.968262,1499.012329 1327.533813,1500.379028 1325.913940,1501.477539 
	C1321.077759,1504.757324 1316.266724,1508.149170 1311.106689,1510.849487 
	C1307.798950,1512.580322 1308.687256,1514.186768 1310.051636,1516.315430 
	C1314.601318,1523.413574 1314.620361,1523.430298 1321.649292,1518.728638 
	C1324.078003,1517.104004 1326.328125,1515.194092 1328.835083,1513.710571 
	C1330.676514,1512.620850 1332.431885,1510.474243 1334.740356,1513.983154 
	C1336.858521,1517.202881 1335.654785,1518.033081 1333.079834,1519.539551 
	C1328.894165,1521.988159 1325.055786,1525.028442 1320.880493,1527.497314 
	C1318.737061,1528.764648 1318.444702,1529.673584 1320.022095,1531.595337 
	C1321.348877,1533.211670 1322.596924,1535.023682 1323.343140,1536.956421 
	C1324.694946,1540.457642 1326.558350,1539.453979 1328.768188,1538.046753 
	C1333.826050,1534.825928 1339.056396,1531.855225 1343.942383,1528.395630 
	C1345.942749,1526.979126 1347.087769,1526.541382 1347.926025,1529.041748 
	C1348.454468,1530.618042 1351.490601,1532.015625 1347.999512,1534.074951 
	C1340.327026,1538.601074 1332.707886,1543.264648 1325.427734,1548.385010 
	C1322.734863,1550.278809 1322.129639,1548.850708 1321.096558,1547.229492 
	C1314.043945,1536.163330 1307.112915,1525.018311 1299.937988,1514.032227 
	C1298.170166,1511.325073 1298.112427,1509.811646 1301.719238,1508.704102 
z"/>
<path fill="#F6BE00" opacity="1.000000" stroke="none" 
	d="
M714.735596,1565.311035 
	C721.613708,1567.807861 728.165466,1570.086914 734.740112,1572.297852 
	C737.440308,1573.205811 737.874268,1574.850586 736.972839,1577.399902 
	C735.986023,1580.190552 734.187805,1579.707886 732.176453,1578.976074 
	C726.712646,1576.988159 721.230957,1575.047607 715.789185,1573.000977 
	C713.372314,1572.092041 711.923889,1572.219849 710.951355,1575.148682 
	C708.221680,1583.368286 708.133728,1583.191406 716.529358,1586.282715 
	C719.537720,1587.390381 722.592896,1588.826172 725.566711,1589.605103 
	C729.626648,1590.668213 728.322144,1592.430054 727.644287,1594.749512 
	C726.665039,1598.100220 724.775330,1596.794678 722.730591,1595.986816 
	C717.789062,1594.034302 712.786316,1592.236328 707.807190,1590.379150 
	C707.511353,1590.268799 707.039734,1590.007568 706.929993,1590.111572 
	C704.012756,1592.879639 703.438721,1596.803711 702.082825,1600.315552 
	C701.149109,1602.733887 703.365173,1603.340942 704.989258,1603.935547 
	C710.449158,1605.934082 715.870667,1608.104248 721.460510,1609.655273 
	C724.693420,1610.552246 724.197388,1611.946655 723.412170,1614.261597 
	C722.684021,1616.408203 722.426636,1617.486084 719.513916,1616.333130 
	C710.501404,1612.765991 701.274231,1609.741089 692.146851,1606.511475 
	C696.674683,1593.881592 701.053162,1581.223755 705.772034,1568.694092 
	C708.107727,1562.492554 708.391296,1562.599365 714.735596,1565.311035 
z"/>
<path fill="#F6BE00" opacity="1.000000" stroke="none" 
	d="
M1192.944336,1604.966187 
	C1197.994141,1603.075806 1202.630615,1601.171631 1207.310791,1599.381226 
	C1209.348022,1598.602051 1211.102417,1598.615112 1212.032959,1601.253174 
	C1212.819458,1603.481812 1212.869019,1605.048096 1210.293701,1605.968994 
	C1201.965942,1608.946899 1193.651611,1611.963013 1185.354980,1615.026489 
	C1181.790649,1616.342773 1181.832642,1612.892090 1181.272827,1611.465210 
	C1177.971680,1603.052856 1175.087402,1594.477173 1172.029541,1585.968628 
	C1170.775146,1582.478271 1169.682617,1578.897705 1168.058594,1575.582397 
	C1166.807983,1573.029053 1167.554077,1571.893311 1169.880859,1571.078003 
	C1177.803833,1568.301880 1185.782959,1565.671265 1193.614380,1562.657227 
	C1196.408936,1561.581543 1197.577637,1561.736084 1198.492920,1564.818726 
	C1199.347046,1567.694946 1198.564819,1568.320679 1195.863281,1569.173218 
	C1189.258911,1571.257080 1182.845459,1573.946411 1176.302246,1576.411987 
	C1177.690796,1580.147461 1179.079102,1583.882812 1180.519897,1587.759155 
	C1186.315796,1585.668579 1192.184082,1583.494019 1198.099854,1581.457031 
	C1199.655640,1580.921143 1201.326172,1579.846069 1202.183105,1582.919434 
	C1202.850464,1585.312134 1203.489624,1586.831543 1200.573242,1587.823120 
	C1195.695557,1589.481567 1190.891357,1591.355957 1186.011353,1593.007324 
	C1183.618896,1593.816895 1182.585693,1594.760986 1183.925781,1597.462158 
	C1185.417603,1600.469238 1186.388794,1603.734619 1187.621460,1606.979492 
	C1189.272339,1606.315796 1190.910522,1605.657104 1192.944336,1604.966187 
z"/>
<path fill="#F6BE00" opacity="1.000000" stroke="none" 
	d="
M1483.678467,1353.307129 
	C1498.002319,1356.774536 1511.967773,1360.007568 1526.066528,1363.271362 
	C1521.924805,1370.040405 1521.949951,1369.934692 1514.457031,1368.148926 
	C1511.458496,1367.434326 1508.793457,1367.448730 1506.827637,1371.064941 
	C1504.755005,1374.877441 1501.619751,1378.137085 1498.781372,1381.496948 
	C1497.576782,1382.922852 1496.956543,1383.924561 1498.654785,1385.401245 
	C1499.334595,1385.992432 1499.554932,1387.106201 1499.999146,1387.974609 
	C1503.359741,1394.544067 1503.350952,1394.588379 1497.085693,1400.045898 
	C1489.823730,1385.603882 1482.590698,1371.254517 1475.408203,1356.879883 
	C1474.724854,1355.512329 1474.557983,1353.982300 1475.800415,1352.734009 
	C1476.885254,1351.644165 1478.385010,1351.661987 1479.489990,1352.280640 
	C1480.762573,1352.993164 1482.024170,1352.928833 1483.678467,1353.307129 
z"/>
<path fill="#F6BE00" opacity="1.000000" stroke="none" 
	d="
M432.009979,1426.961670 
	C429.103424,1427.727051 424.014832,1425.160156 423.512573,1422.857300 
	C423.226746,1421.546509 424.254089,1421.332275 425.182983,1421.009277 
	C439.524414,1416.020752 453.849060,1410.983276 468.219452,1406.079712 
	C469.329773,1405.700928 470.763611,1404.678711 472.075684,1406.484375 
	C473.108459,1407.905762 473.239258,1409.197876 472.708252,1410.624268 
	C467.695282,1424.089722 462.715332,1437.568970 457.474457,1450.945679 
	C456.962799,1452.251587 456.895477,1455.891846 454.250732,1454.414917 
	C451.991486,1453.153564 448.140472,1450.675293 450.424744,1447.427612 
	C455.634399,1440.020630 452.266602,1435.357910 446.463501,1430.941406 
	C445.806915,1430.441772 445.150269,1429.857788 444.708069,1429.174194 
	C441.384247,1424.036987 437.184021,1423.925659 432.009979,1426.961670 
z"/>
<path fill="#F6BE00" opacity="1.000000" stroke="none" 
	d="
M429.034363,1358.185913 
	C432.695312,1364.308594 432.827057,1370.255371 429.410858,1375.983032 
	C425.739716,1382.138062 419.534027,1383.060669 413.290039,1381.856567 
	C405.037140,1380.264771 401.200226,1373.864502 398.540497,1366.193115 
	C394.654877,1369.336182 390.773773,1372.496216 386.864929,1375.621582 
	C386.007629,1376.307251 384.890106,1378.206421 384.069580,1375.896729 
	C383.372314,1373.934082 378.709473,1372.817627 381.984192,1370.095947 
	C392.781158,1361.121948 403.864075,1352.492676 414.797791,1343.682007 
	C416.798615,1342.069702 417.542572,1343.992188 418.344238,1344.926147 
	C421.967957,1349.148071 425.436707,1353.503052 429.034363,1358.185913 
z"/>
<path fill="#F6BE00" opacity="1.000000" stroke="none" 
	d="
M317.000061,1171.999390 
	C309.273315,1175.441040 301.265289,1177.248901 294.249298,1181.316284 
	C288.643921,1184.565796 287.227966,1190.162476 290.008118,1196.074463 
	C292.980011,1202.394165 297.611237,1204.673462 304.042999,1202.413696 
	C312.401520,1199.476685 320.669220,1196.267334 328.889832,1192.960693 
	C331.115051,1192.065796 331.880249,1192.881836 332.217682,1194.712402 
	C332.492188,1196.201782 335.257507,1198.097046 332.242035,1199.208008 
	C321.379059,1203.210205 311.323395,1209.584473 299.242493,1210.062744 
	C291.943970,1210.351685 287.218079,1206.315918 284.094452,1200.803711 
	C277.193817,1188.626465 283.503113,1176.545898 294.684570,1172.905151 
	C301.432495,1170.707886 307.870239,1167.572266 314.562836,1165.181641 
	C316.492981,1164.491943 318.849304,1161.385010 320.965149,1165.101562 
	C323.298767,1169.200806 321.251526,1171.052856 317.000061,1171.999390 
z"/>
<path fill="#F6BE00" opacity="1.000000" stroke="none" 
	d="
M1098.648926,1620.183594 
	C1094.505249,1611.436157 1095.559204,1603.199341 1100.776855,1595.930542 
	C1106.465576,1588.005493 1114.800171,1584.923950 1124.496338,1586.061768 
	C1129.077637,1586.599243 1130.917847,1589.478882 1130.820068,1595.675659 
	C1126.140381,1593.415527 1121.168213,1591.735596 1116.386108,1593.394531 
	C1111.859741,1594.964722 1107.412231,1597.367798 1105.245728,1602.332031 
	C1101.910767,1609.973877 1103.442871,1618.317871 1110.565308,1624.042847 
	C1117.284180,1629.443359 1125.523193,1627.677979 1137.995483,1618.097046 
	C1140.775879,1623.768188 1141.260010,1625.546997 1134.353394,1630.132568 
	C1123.464111,1637.362183 1104.516113,1635.201904 1098.648926,1620.183594 
z"/>
<path fill="#F6BE00" opacity="1.000000" stroke="none" 
	d="
M1643.285645,1023.312500 
	C1640.725342,1027.311157 1638.807617,1031.235229 1635.955811,1034.647095 
	C1632.128540,1039.226196 1627.367554,1040.007568 1622.155151,1038.487793 
	C1617.447266,1037.114990 1614.070923,1031.250244 1613.987183,1025.611206 
	C1613.921265,1021.171387 1613.915405,1016.862610 1616.889160,1013.028442 
	C1617.931274,1011.684753 1618.778809,1011.058594 1620.411743,1010.954834 
	C1622.311890,1010.834106 1624.161865,1011.097229 1625.407593,1012.369812 
	C1625.706421,1012.674988 1624.490356,1015.008118 1623.513550,1015.917053 
	C1620.221924,1018.979919 1620.903687,1022.879700 1621.088379,1026.589722 
	C1621.221436,1029.260620 1623.073120,1031.114868 1625.593872,1031.805420 
	C1627.960571,1032.453735 1629.065063,1030.571655 1630.598389,1029.034180 
	C1633.679443,1025.944336 1635.378784,1022.025269 1637.700439,1018.516357 
	C1640.727417,1013.941223 1644.579346,1011.410522 1649.953857,1012.121277 
	C1655.105347,1012.802490 1658.470337,1017.827209 1660.197754,1023.221069 
	C1661.781860,1028.167847 1659.975098,1032.225464 1658.715210,1036.446777 
	C1657.088135,1041.898193 1653.024048,1043.506470 1647.296265,1041.580811 
	C1649.189819,1037.408813 1652.837646,1034.059082 1653.656982,1029.075439 
	C1654.278564,1025.294556 1653.636230,1022.281372 1650.694824,1020.443665 
	C1647.832886,1018.655762 1645.395752,1020.668884 1643.285645,1023.312500 
z"/>
<path fill="#F6BE00" opacity="1.000000" stroke="none" 
	d="
M285.317139,1011.706482 
	C286.742340,1014.706726 285.778351,1016.370544 283.496796,1018.143982 
	C277.967865,1022.441589 272.722687,1027.104248 267.497955,1031.506226 
	C274.422058,1034.693970 281.402802,1037.718262 288.198212,1041.113403 
	C291.780273,1042.903076 289.234833,1046.519775 290.378662,1050.061646 
	C282.439362,1046.312622 274.938263,1043.368408 268.083252,1039.328003 
	C263.346344,1036.536133 258.592010,1036.501465 253.818329,1037.203247 
	C251.081207,1037.605591 248.252747,1037.537354 245.594025,1038.279297 
	C244.038071,1038.713379 242.075577,1040.187744 242.166595,1037.308350 
	C242.232529,1035.222900 239.967453,1031.771362 244.247238,1031.028687 
	C248.722519,1030.252075 253.235641,1029.696167 257.723724,1028.989746 
	C261.934021,1028.327148 263.991638,1024.526001 267.059265,1022.245728 
	C272.429260,1018.254150 277.270782,1013.551819 282.337708,1009.151794 
	C282.926514,1008.640564 283.423279,1007.611816 284.363770,1008.196533 
	C285.563538,1008.942444 284.751953,1010.329590 285.317139,1011.706482 
z"/>
<path fill="#F7BE00" opacity="1.000000" stroke="none" 
	d="
M1577.294434,1257.657715 
	C1569.073608,1253.490112 1561.151245,1249.551758 1553.259277,1245.628418 
	C1552.598999,1246.846558 1551.581787,1248.195435 1551.102051,1249.714233 
	C1549.971069,1253.294556 1547.934204,1251.335449 1546.144897,1250.663330 
	C1544.181519,1249.925659 1543.381348,1248.979004 1544.669312,1246.650146 
	C1547.497437,1241.536987 1550.190918,1236.313599 1552.434814,1230.925171 
	C1553.956421,1227.271729 1555.528809,1230.131958 1556.929443,1230.519531 
	C1558.783203,1231.032715 1560.914062,1231.987305 1558.894775,1234.459595 
	C1556.014160,1237.986084 1557.480225,1239.476562 1561.095825,1241.107178 
	C1568.199707,1244.310791 1575.130127,1247.918457 1582.011719,1251.584839 
	C1584.418945,1252.867676 1586.145020,1253.338745 1586.955811,1250.177246 
	C1587.898315,1246.502441 1589.776489,1246.803955 1592.693237,1248.163452 
	C1596.267456,1249.829468 1594.142822,1251.535522 1593.235718,1253.370972 
	C1591.004150,1257.885498 1588.701416,1262.366943 1586.576782,1266.931274 
	C1585.317139,1269.637329 1583.812744,1269.124023 1581.504272,1268.208008 
	C1578.824951,1267.145020 1578.657227,1265.686523 1580.052368,1263.824585 
	C1582.712280,1260.274536 1580.930298,1258.819458 1577.294434,1257.657715 
z"/>
<path fill="#F6BE00" opacity="1.000000" stroke="none" 
	d="
M598.862671,1514.620850 
	C595.246216,1515.681274 593.351562,1512.962158 591.048523,1511.468506 
	C585.105957,1507.614624 585.132141,1507.466919 581.190186,1513.336304 
	C575.771362,1521.404907 570.175354,1529.373657 565.194763,1537.707642 
	C563.286011,1540.901367 562.433655,1539.459106 560.451843,1538.262573 
	C558.219727,1536.914673 557.159302,1536.077759 558.996399,1533.400269 
	C564.965027,1524.701172 570.525879,1515.721191 576.547302,1507.060425 
	C578.701599,1503.961792 578.256165,1502.458618 575.015869,1500.944580 
	C572.696167,1499.860840 570.706177,1498.074951 568.391663,1496.975586 
	C565.620117,1495.659058 565.898743,1494.028809 567.457825,1492.112427 
	C568.901184,1490.338257 570.131226,1489.282471 572.781250,1491.114746 
	C580.898132,1496.726074 589.275269,1501.967896 597.644653,1507.204102 
	C600.838989,1509.202637 602.043945,1511.261230 598.862671,1514.620850 
z"/>
<path fill="#F6BE00" opacity="1.000000" stroke="none" 
	d="
M1524.655762,1308.263306 
	C1523.248657,1307.372192 1522.148926,1306.691895 1521.050781,1306.009033 
	C1519.508667,1305.049805 1518.420898,1304.606567 1517.413818,1306.958496 
	C1516.280396,1309.605957 1514.595215,1312.072021 1512.835571,1314.376953 
	C1511.697754,1315.867188 1511.183472,1319.021729 1507.765503,1316.446899 
	C1505.014038,1314.374023 1505.110474,1313.107178 1506.930176,1310.442627 
	C1512.786133,1301.867432 1518.430420,1293.138794 1523.858398,1284.286621 
	C1525.321533,1281.900635 1525.978516,1281.510498 1528.136230,1283.455444 
	C1529.687988,1284.854126 1532.414307,1285.163818 1529.619995,1287.996582 
	C1528.291382,1289.343384 1527.608154,1291.308228 1526.532837,1292.926758 
	C1522.545532,1298.927734 1522.652466,1298.712402 1528.593384,1302.264160 
	C1536.931763,1307.249512 1545.005615,1312.676514 1553.322998,1317.698486 
	C1555.965820,1319.294189 1555.254272,1320.543335 1554.188232,1322.735474 
	C1552.816162,1325.557007 1551.262939,1325.372314 1549.148682,1324.015869 
	C1541.083008,1318.841431 1533.024780,1313.655029 1524.655762,1308.263306 
z"/>
<path fill="#F6BE00" opacity="1.000000" stroke="none" 
	d="
M905.036743,1637.281738 
	C906.811584,1634.038086 905.723267,1630.961060 905.987244,1628.029907 
	C906.295105,1624.610229 905.622314,1621.188477 906.862549,1617.739502 
	C907.924805,1614.785889 906.068420,1613.155396 903.035767,1613.012695 
	C900.987915,1612.916382 898.674316,1613.679077 898.916199,1609.994141 
	C899.163147,1606.233276 901.405212,1606.794189 903.805359,1606.986572 
	C909.051575,1607.407104 914.300110,1606.547607 919.605469,1607.810181 
	C922.480896,1608.494385 921.830444,1609.945068 922.010864,1611.621460 
	C922.299255,1614.301270 920.460815,1614.209839 918.815247,1613.963501 
	C914.934082,1613.382690 914.398987,1615.020752 913.756409,1618.727539 
	C912.421082,1626.430420 913.932617,1634.245728 912.045959,1641.858398 
	C911.080994,1645.752075 912.559692,1647.832275 916.932800,1647.038696 
	C917.854309,1646.871582 918.862793,1647.184204 919.867493,1647.279297 
	C919.552246,1648.882446 919.009705,1650.302979 919.057617,1651.703369 
	C919.134399,1653.945068 917.844055,1654.406250 916.253967,1653.948608 
	C910.714661,1652.354248 905.073669,1653.156982 899.479309,1653.045410 
	C897.489197,1653.005859 896.627258,1652.289673 897.039551,1650.427002 
	C897.376160,1648.906372 895.813660,1645.726562 898.638733,1646.175659 
	C906.671448,1647.452515 904.914978,1642.057617 905.036743,1637.281738 
z"/>
<path fill="#F6BE00" opacity="1.000000" stroke="none" 
	d="
M1241.000610,1558.001709 
	C1239.299561,1554.448364 1237.804443,1551.183716 1235.971191,1548.121216 
	C1234.330444,1545.380005 1235.952393,1544.714355 1237.939087,1543.413818 
	C1240.540405,1541.710815 1241.407227,1542.626343 1242.539062,1544.961426 
	C1247.284424,1554.749878 1252.224609,1564.444092 1257.001709,1574.217407 
	C1258.082153,1576.428101 1259.123535,1577.231812 1261.591675,1575.863525 
	C1267.127930,1572.794556 1272.897949,1570.145142 1278.417725,1567.048462 
	C1281.212158,1565.480591 1281.761597,1567.277344 1282.569580,1569.096802 
	C1283.239014,1570.604126 1284.604248,1571.828735 1281.778687,1573.130615 
	C1273.676880,1576.863281 1265.692383,1580.877075 1257.840820,1585.112305 
	C1254.976685,1586.657349 1254.524780,1585.004761 1253.602783,1583.168579 
	C1249.447754,1574.892090 1245.244873,1566.639648 1241.000610,1558.001709 
z"/>
<path fill="#000000" opacity="1.000000" stroke="none" 
	d="
M1566.882568,691.889160 
	C1566.745850,692.917297 1566.197266,693.221802 1565.400757,692.694702 
	C1565.357422,692.666077 1565.700195,692.053894 1566.083984,691.520630 
	C1566.434204,691.451782 1566.563477,691.575623 1566.882568,691.889160 
z"/>
<path fill="#000000" opacity="1.000000" stroke="none" 
	d="
M1451.746948,408.625549 
	C1445.643188,415.188446 1439.795776,421.510223 1433.786133,427.673706 
	C1429.346436,432.227081 1425.571411,432.676727 1420.701172,428.879456 
	C1416.432129,425.550903 1412.596069,421.669342 1408.540894,418.063324 
	C1407.073242,416.758057 1407.074097,415.963898 1408.281250,414.054474 
	C1411.585571,408.828033 1416.438843,405.063385 1420.366821,400.455566 
	C1426.870117,392.826447 1434.162109,385.852020 1440.492676,378.028351 
	C1441.377808,376.934448 1442.234253,376.721069 1443.364868,377.849304 
	C1447.796387,382.272095 1453.073242,385.800201 1457.089966,390.658569 
	C1460.250732,394.481415 1459.650635,399.271484 1455.689941,403.855133 
	C1454.420166,405.324493 1452.379517,406.155945 1451.746948,408.625549 
z"/>
<path fill="#000000" opacity="1.000000" stroke="none" 
	d="
M803.480042,260.803772 
	C797.201843,262.571991 791.319763,264.259796 785.291016,265.479065 
	C782.842224,265.974304 782.441772,265.998199 781.887268,263.435791 
	C778.505432,247.808273 774.866638,232.235901 771.233643,216.663788 
	C770.817139,214.878448 771.212524,213.289642 772.847351,213.160767 
	C778.872498,212.685837 784.480347,210.244461 790.558899,209.884171 
	C795.526672,209.589737 798.565186,211.561310 799.949707,215.956497 
	C803.493225,227.206070 805.725525,238.782425 807.976868,250.342056 
	C808.803040,254.584061 807.550781,258.147827 803.480042,260.803772 
z"/>
<path fill="#000000" opacity="1.000000" stroke="none" 
	d="
M298.039246,823.999207 
	C304.741821,825.035156 311.050201,825.815613 317.231079,827.175415 
	C323.799042,828.620361 326.476349,834.111816 324.851044,841.370667 
	C324.072418,844.848206 323.356567,848.374573 323.055084,851.916504 
	C322.504211,858.387695 322.474945,858.829895 316.367065,857.932922 
	C302.374420,855.878235 288.442841,853.411316 274.466339,851.241516 
	C264.644806,849.716736 254.785507,848.437256 244.951523,846.990723 
	C233.841232,845.356384 222.746414,843.615845 211.630234,842.023560 
	C209.481796,841.715820 209.877075,840.215759 210.047943,839.076355 
	C211.036545,832.483826 211.796722,825.822205 213.369980,819.363159 
	C214.659912,814.067322 221.186539,811.786072 228.181381,813.034058 
	C238.260880,814.832458 248.382477,816.399902 258.498413,817.987610 
	C271.522247,820.031677 284.558167,821.998535 298.039246,823.999207 
z"/>
<path fill="#000000" opacity="1.000000" stroke="none" 
	d="
M1284.073364,333.008606 
	C1279.281372,330.572174 1274.959717,328.005737 1270.426025,325.894470 
	C1267.947876,324.740356 1267.927490,323.631287 1269.080200,321.508789 
	C1276.956421,307.005981 1284.801514,292.485443 1292.510620,277.893433 
	C1293.733276,275.579010 1294.764282,275.757629 1296.652588,276.910706 
	C1301.768677,280.034760 1307.176392,282.719025 1312.087280,286.126831 
	C1315.022095,288.163422 1316.899048,291.281128 1315.026733,295.309692 
	C1309.290894,307.651611 1303.182617,319.800171 1295.401123,330.995544 
	C1292.648682,334.955597 1288.751465,335.792511 1284.073364,333.008606 
z"/>
<path fill="#000000" opacity="1.000000" stroke="none" 
	d="
M1396.231812,1490.270508 
	C1393.097290,1491.706177 1391.304199,1496.225098 1388.242310,1495.041992 
	C1385.782471,1494.091553 1384.584106,1490.224243 1382.420044,1488.056274 
	C1380.518433,1486.151123 1381.092407,1485.005005 1382.798096,1483.723999 
	C1385.373047,1481.789795 1387.973145,1479.888916 1390.567261,1477.980225 
	C1393.698608,1475.675781 1397.232666,1474.634766 1400.432007,1477.182617 
	C1403.287720,1479.456787 1402.382568,1483.961426 1398.939941,1487.535767 
	C1398.134155,1488.372314 1397.303711,1489.185425 1396.231812,1490.270508 
z"/>
<path fill="#000000" opacity="1.000000" stroke="none" 
	d="
M1382.677979,1461.285278 
	C1389.449707,1465.330566 1389.716797,1470.559570 1383.555908,1474.714111 
	C1382.775757,1475.240112 1381.936279,1475.687866 1381.161987,1476.282227 
	C1379.424316,1477.616211 1377.965698,1481.270508 1375.835083,1479.707031 
	C1372.810791,1477.487549 1370.811646,1473.846680 1368.469604,1470.741211 
	C1367.979614,1470.091797 1368.958496,1470.262451 1369.223755,1470.015747 
	C1373.149658,1466.364990 1377.061646,1462.700562 1382.677979,1461.285278 
z"/>
<path fill="#000000" opacity="1.000000" stroke="none" 
	d="
M525.885742,1465.391602 
	C528.097717,1468.704224 529.368896,1471.769531 526.562317,1475.004150 
	C524.475098,1477.409546 522.052063,1478.488525 518.917297,1476.969116 
	C515.823792,1475.469727 513.160034,1473.344849 510.661469,1471.068115 
	C508.478729,1469.078857 508.404297,1466.790649 510.268860,1464.250854 
	C516.009644,1456.430542 516.514526,1456.332153 523.520325,1463.017456 
	C524.237366,1463.701660 524.933899,1464.407349 525.885742,1465.391602 
z"/>
<path fill="#000000" opacity="1.000000" stroke="none" 
	d="
M1430.765015,1425.258057 
	C1429.574585,1424.062988 1428.709351,1423.033325 1427.681274,1422.205811 
	C1425.877563,1420.753906 1425.608521,1419.481689 1427.570557,1417.884155 
	C1430.487671,1415.508911 1432.638306,1412.336670 1436.013794,1410.367065 
	C1439.331055,1408.431763 1441.708496,1409.222656 1444.225342,1411.672363 
	C1446.836182,1414.213257 1446.582275,1416.996826 1445.026001,1419.684448 
	C1443.037720,1423.117798 1440.084839,1425.745605 1436.833740,1428.031128 
	C1433.462646,1430.400879 1432.883301,1426.512573 1430.765015,1425.258057 
z"/>
<path fill="#000000" opacity="1.000000" stroke="none" 
	d="
M345.307007,1248.279541 
	C347.419586,1247.334717 349.067780,1246.261597 350.130280,1249.291260 
	C351.186798,1252.303833 352.874512,1255.088867 354.174133,1258.038696 
	C356.098541,1262.407104 354.063293,1265.187378 351.059448,1267.225586 
	C347.812958,1269.428345 344.593384,1267.663330 342.560333,1264.906738 
	C340.380737,1261.951172 338.740387,1258.567139 337.118805,1255.246094 
	C336.474152,1253.925903 337.401398,1252.770630 338.721588,1252.054443 
	C340.834412,1250.908081 342.907806,1249.689087 345.307007,1248.279541 
z"/>
<path fill="#000000" opacity="1.000000" stroke="none" 
	d="
M1593.937988,1197.427612 
	C1584.902710,1194.929321 1579.645630,1185.616699 1582.105713,1176.719116 
	C1584.670776,1167.442993 1593.984375,1162.404663 1602.862671,1164.845703 
	C1610.868164,1167.046997 1615.856323,1173.662720 1615.913696,1180.995605 
	C1615.969116,1188.073853 1611.159424,1195.444458 1604.045288,1197.460693 
	C1600.782349,1198.385498 1597.521118,1198.054810 1593.937988,1197.427612 
z"/>
<path fill="#000000" opacity="1.000000" stroke="none" 
	d="
M796.600098,1598.261597 
	C799.401245,1600.884766 801.433533,1603.776367 799.245728,1607.059814 
	C796.895447,1610.587036 793.336365,1611.930664 788.926392,1610.507324 
	C778.536804,1607.154053 778.192139,1606.406860 781.937744,1595.552368 
	C782.487976,1593.958008 783.262939,1593.749268 784.399414,1594.171753 
	C788.305054,1595.624146 792.597839,1595.892212 796.600098,1598.261597 
z"/>
<path fill="#000000" opacity="1.000000" stroke="none" 
	d="
M277.360901,1125.997559 
	C263.047119,1123.882080 259.566711,1107.659058 266.013977,1098.729370 
	C270.598755,1092.379517 281.721497,1089.983398 288.459839,1094.167358 
	C296.015808,1098.859009 299.063599,1108.569580 295.617035,1115.951538 
	C292.018555,1123.658936 285.894501,1126.479126 277.360901,1125.997559 
z"/>
<path fill="#000000" opacity="1.000000" stroke="none" 
	d="
M1492.207886,1373.553589 
	C1489.977905,1369.354492 1487.916626,1365.479614 1485.515625,1360.966309 
	C1490.720825,1362.164062 1495.081299,1363.048096 1499.367676,1364.206055 
	C1501.390747,1364.752441 1503.068115,1365.683960 1500.541138,1368.068359 
	C1498.424561,1370.065186 1496.652466,1372.441162 1494.825562,1374.727417 
	C1493.074341,1376.918823 1493.098389,1374.417358 1492.207886,1373.553589 
z"/>
<path fill="#000000" opacity="1.000000" stroke="none" 
	d="
M451.766418,1419.678345 
	C455.642792,1418.666016 458.718353,1416.244751 463.221375,1415.893555 
	C460.987122,1421.232544 458.986298,1426.013672 456.424164,1432.135986 
	C453.879761,1429.124756 452.078979,1426.481934 449.778351,1424.388428 
	C446.147949,1421.084839 447.763977,1420.221313 451.766418,1419.678345 
z"/>
<path fill="#000000" opacity="1.000000" stroke="none" 
	d="
M408.237671,1358.266846 
	C408.881073,1357.686157 409.243286,1357.125854 409.649597,1357.091797 
	C412.314087,1356.868530 413.079681,1351.803955 415.844879,1353.715332 
	C419.543762,1356.272217 422.862427,1359.966919 423.815887,1364.503174 
	C424.593903,1368.204834 424.823273,1372.524902 419.970062,1374.559814 
	C415.920319,1376.257812 411.596832,1375.030151 408.576447,1371.045776 
	C407.992188,1370.274902 407.649658,1369.317139 407.046844,1368.564819 
	C404.109528,1364.898804 402.540344,1361.402832 408.237671,1358.266846 
z"/>
</svg>